<svg width="301" height="114" viewBox="0 0 301 114" fill="none" xmlns="http://www.w3.org/2000/svg">
<g id="3modules_visible" clip-path="url(#clip0_78_14)">
<g id="main_group">
<g id="module3_visible">
<g id="Group 25">
<g id="Group 17">
<rect id="Rectangle 15" x="239.5" y="0.5" width="61.2364" height="103.501" rx="9.5" stroke="white"/>
<path id="$" d="M268.572 68.2727V35.5455H269.812V68.2727H268.572ZM275.898 45.3636C275.761 43.7358 275.097 42.419 273.903 41.4134C272.719 40.4077 271.185 39.9048 269.301 39.9048C268.031 39.9048 266.902 40.1392 265.913 40.608C264.925 41.0767 264.149 41.7159 263.587 42.5256C263.024 43.3352 262.743 44.2642 262.743 45.3125C262.743 45.9858 262.871 46.5952 263.126 47.1406C263.391 47.6776 263.761 48.1591 264.239 48.5852C264.716 49.0028 265.283 49.3693 265.939 49.6847C266.595 50 267.32 50.277 268.112 50.5156L270.976 51.3594C271.956 51.6577 272.859 52.0028 273.686 52.3949C274.521 52.7869 275.246 53.2557 275.859 53.8011C276.482 54.3381 276.963 54.9687 277.304 55.6932C277.653 56.4176 277.828 57.2528 277.828 58.1989C277.828 59.5795 277.47 60.8153 276.754 61.9062C276.047 62.9972 275.037 63.858 273.724 64.4886C272.42 65.1108 270.882 65.4219 269.109 65.4219C267.422 65.4219 265.952 65.1364 264.699 64.5653C263.455 63.9943 262.47 63.2017 261.746 62.1875C261.021 61.1648 260.612 59.9886 260.518 58.6591H262.155C262.24 59.7415 262.585 60.679 263.19 61.4716C263.804 62.2557 264.618 62.8608 265.632 63.2869C266.646 63.7131 267.805 63.9261 269.109 63.9261C270.516 63.9261 271.756 63.6875 272.83 63.2102C273.903 62.7244 274.743 62.0511 275.348 61.1903C275.953 60.3295 276.256 59.3281 276.256 58.1861C276.256 57.2656 276.038 56.4773 275.604 55.821C275.169 55.1648 274.526 54.598 273.673 54.1207C272.83 53.6435 271.781 53.2173 270.528 52.8423L267.473 51.9219C265.428 51.2997 263.864 50.4517 262.781 49.3778C261.707 48.304 261.17 46.9659 261.17 45.3636C261.17 44.017 261.528 42.8239 262.244 41.7841C262.96 40.7358 263.932 39.9134 265.159 39.3168C266.395 38.7202 267.788 38.4219 269.339 38.4219C270.899 38.4219 272.276 38.7244 273.469 39.3295C274.662 39.9261 275.608 40.7486 276.307 41.7969C277.006 42.8366 277.393 44.0256 277.47 45.3636H275.898Z" fill="#F9FAFB"/>
</g>
<g id="Group 21">
<g id="Rectangle 15_2">
<rect x="248.463" y="96.9629" width="43.8152" height="16.6849" rx="8.34243" fill="white"/>
<rect x="248.463" y="96.9629" width="43.8152" height="16.6849" rx="8.34243" fill="white"/>
<rect x="248.463" y="96.9629" width="43.8152" height="16.6849" rx="8.34243" fill="white"/>
<rect x="248.463" y="96.9629" width="43.8152" height="16.6849" rx="8.34243" fill="white"/>
<rect x="248.463" y="96.9629" width="43.8152" height="16.6849" rx="8.34243" fill="white"/>
<rect x="248.463" y="96.9629" width="43.8152" height="16.6849" rx="8.34243" fill="#F9FAFB"/>
<rect x="248.463" y="96.9629" width="43.8152" height="16.6849" rx="8.34243" fill="#F9FAFB"/>
<rect x="248.463" y="96.9629" width="43.8152" height="16.6849" rx="8.34243" fill="#F9FAFB"/>
<rect x="248.463" y="96.9629" width="43.8152" height="16.6849" rx="8.34243" fill="#F9FAFB"/>
<rect x="248.463" y="96.9629" width="43.8152" height="16.6849" rx="8.34243" fill="#F9FAFB"/>
<rect x="248.463" y="96.9629" width="43.8152" height="16.6849" rx="8.34243" fill="#F9FAFB"/>
<rect x="248.463" y="96.9629" width="43.8152" height="16.6849" rx="8.34243" fill="#6B767B"/>
<rect x="248.463" y="96.9629" width="43.8152" height="16.6849" rx="8.34243" stroke="white"/>
</g>
</g>
</g>
</g>
<g id="module2_visible">
<g id="Group 30">
<g id="Group 25_2">
<g id="Group 17_2">
<rect id="Rectangle 15_3" x="120.5" y="0.5" width="61.2364" height="103.501" rx="9.5" stroke="white"/>
</g>
<g id="Group 21_2">
<g id="Rectangle 15_4">
<rect x="129.463" y="96.9629" width="43.8152" height="16.6849" rx="8.34243" fill="white"/>
<rect x="129.463" y="96.9629" width="43.8152" height="16.6849" rx="8.34243" fill="white"/>
<rect x="129.463" y="96.9629" width="43.8152" height="16.6849" rx="8.34243" fill="white"/>
<rect x="129.463" y="96.9629" width="43.8152" height="16.6849" rx="8.34243" fill="white"/>
<rect x="129.463" y="96.9629" width="43.8152" height="16.6849" rx="8.34243" fill="white"/>
<rect x="129.463" y="96.9629" width="43.8152" height="16.6849" rx="8.34243" fill="#F9FAFB"/>
<rect x="129.463" y="96.9629" width="43.8152" height="16.6849" rx="8.34243" fill="#F9FAFB"/>
<rect x="129.463" y="96.9629" width="43.8152" height="16.6849" rx="8.34243" fill="#F9FAFB"/>
<rect x="129.463" y="96.9629" width="43.8152" height="16.6849" rx="8.34243" fill="#F9FAFB"/>
<rect x="129.463" y="96.9629" width="43.8152" height="16.6849" rx="8.34243" fill="#F9FAFB"/>
<rect x="129.463" y="96.9629" width="43.8152" height="16.6849" rx="8.34243" fill="#F9FAFB"/>
<rect x="129.463" y="96.9629" width="43.8152" height="16.6849" rx="8.34243" fill="#6B767B"/>
<rect x="129.463" y="96.9629" width="43.8152" height="16.6849" rx="8.34243" stroke="white"/>
</g>
</g>
</g>
</g>
<g id="Group 31">
<path id="Vector 1" d="M133 42.5714V70H160.6M133 42.5714L143.2 34H156.1M133 42.5714H146.2M160.6 70L169 62V34M160.6 70V42.5714M169 34H156.1M169 34L160.6 42.5714M146.2 42.5714L156.1 34M146.2 42.5714H160.6" stroke="#F9FAFB"/>
</g>
</g>
<g id="module1_visible">
<g id="Group 25_3">
<g id="Group 17_3">
<rect id="Rectangle 15_5" x="0.5" y="0.5" width="61.2364" height="103.501" rx="9.5" stroke="white"/>
</g>
<g id="Group 21_3">
<g id="Rectangle 15_6">
<rect x="9.46313" y="96.9629" width="43.8152" height="16.6849" rx="8.34243" fill="white"/>
<rect x="9.46313" y="96.9629" width="43.8152" height="16.6849" rx="8.34243" fill="white"/>
<rect x="9.46313" y="96.9629" width="43.8152" height="16.6849" rx="8.34243" fill="white"/>
<rect x="9.46313" y="96.9629" width="43.8152" height="16.6849" rx="8.34243" fill="white"/>
<rect x="9.46313" y="96.9629" width="43.8152" height="16.6849" rx="8.34243" fill="white"/>
<rect x="9.46313" y="96.9629" width="43.8152" height="16.6849" rx="8.34243" fill="#F9FAFB"/>
<rect x="9.46313" y="96.9629" width="43.8152" height="16.6849" rx="8.34243" fill="#F9FAFB"/>
<rect x="9.46313" y="96.9629" width="43.8152" height="16.6849" rx="8.34243" fill="#F9FAFB"/>
<rect x="9.46313" y="96.9629" width="43.8152" height="16.6849" rx="8.34243" fill="#F9FAFB"/>
<rect x="9.46313" y="96.9629" width="43.8152" height="16.6849" rx="8.34243" fill="#F9FAFB"/>
<rect x="9.46313" y="96.9629" width="43.8152" height="16.6849" rx="8.34243" fill="#F9FAFB"/>
<rect x="9.46313" y="96.9629" width="43.8152" height="16.6849" rx="8.34243" fill="#6B767B"/>
<rect x="9.46313" y="96.9629" width="43.8152" height="16.6849" rx="8.34243" stroke="white"/>
</g>
</g>
</g>
<g id="Group 28">
<rect id="Rectangle 16" x="14.5" y="27.5" width="33" height="43.1622" stroke="#F9FAFB"/>
<line id="Line 9" y1="-0.5" x2="10.8545" y2="-0.5" transform="matrix(0.835292 0.549806 -0.510352 0.859965 21.9333 56.8393)" stroke="white"/>
<line id="Line 10" y1="-0.5" x2="23.2413" y2="-0.5" transform="matrix(-0.487638 0.873046 -0.850093 -0.526633 42.3333 42.5164)" stroke="white"/>
<line id="Line 11" opacity="0.21" x1="19.6667" y1="33.6614" x2="42.3334" y2="33.6614" stroke="white"/>
<line id="Line 12" opacity="0.21" x1="19.6667" y1="44.4036" x2="42.3334" y2="44.4036" stroke="white"/>
<line id="Line 13" opacity="0.21" x1="19.6667" y1="53.9521" x2="42.3334" y2="53.9521" stroke="white"/>
<line id="Line 14" opacity="0.21" x1="19.6667" y1="64.6943" x2="42.3334" y2="64.6943" stroke="white"/>
</g>
</g>
</g>
</g>
<defs>
<clipPath id="clip0_78_14">
<rect width="301" height="114" fill="white"/>
</clipPath>
</defs>
</svg>
