<svg width="122" height="98" viewBox="0 0 122 98" fill="none" xmlns="http://www.w3.org/2000/svg">
<g id="agile">
<path id="Vector 7" d="M108.5 55.4663L92.0488 60.8847L104.967 72.4226L108.5 55.4663ZM13 72.4663C12.6056 73.9136 12.606 73.9137 12.6066 73.9138C12.6069 73.9139 12.6076 73.9141 12.6083 73.9143C12.6098 73.9147 12.6118 73.9152 12.6144 73.9159C12.6195 73.9173 12.6268 73.9193 12.6363 73.9219C12.6554 73.927 12.6831 73.9344 12.7193 73.9441C12.7918 73.9634 12.8982 73.9915 13.0369 74.0275C13.3143 74.0995 13.7207 74.2031 14.2422 74.3311C15.2851 74.5869 16.7891 74.9403 18.6426 75.3325C22.3471 76.1164 27.4595 77.0583 33.0834 77.6868C38.7013 78.3146 44.8678 78.6341 50.6698 78.1572C56.4497 77.6821 62.0025 76.4067 66.2919 73.7403L65.5 72.4663L64.7081 71.1924C60.9975 73.499 55.9878 74.71 50.424 75.1673C44.8822 75.6228 38.9237 75.3208 33.4166 74.7053C27.9155 74.0906 22.9029 73.1676 19.2637 72.3975C17.4453 72.0127 15.9727 71.6667 14.957 71.4175C14.4493 71.2929 14.0559 71.1926 13.7907 71.1237C13.6582 71.0893 13.5577 71.0628 13.4911 71.0451C13.4578 71.0362 13.4329 71.0295 13.4167 71.0251C13.4086 71.023 13.4027 71.0214 13.3989 71.0203C13.3971 71.0198 13.3958 71.0195 13.395 71.0193C13.3946 71.0192 13.3945 71.0191 13.3943 71.0191C13.3942 71.0191 13.3944 71.0191 13 72.4663ZM65.5 72.4663L66.2919 73.7403C74.6298 68.5572 80.8881 59.6729 82.7218 50.3475C84.5708 40.9445 81.9093 31.0582 72.3719 24.2457L71.5 25.4663L70.6281 26.6869C79.0907 32.7316 81.4292 41.3723 79.7782 49.7686C78.1119 58.2425 72.3702 66.4295 64.7081 71.1924L65.5 72.4663ZM71.5 25.4663L72.3719 24.2457C62.7918 17.4028 52.3684 18.6264 44.4421 23.6936C36.5902 28.7132 31 37.6172 31 46.4664H32.5H34C34 38.8156 38.9098 30.7909 46.0579 26.2212C53.1316 21.6991 62.2082 20.6726 70.6281 26.6869L71.5 25.4663ZM32.5 46.4664H31C31 64.0813 46.9907 77.9663 71.5 77.9663V76.4663V74.9663C48.0093 74.9663 34 61.8513 34 46.4664H32.5ZM71.5 76.4663V77.9663C84.3044 77.9663 94.0653 72.2066 100.487 66.6703L99.5077 65.5342L98.5283 64.3981C92.4459 69.6417 83.3542 74.9663 71.5 74.9663V76.4663Z" fill="#F9FAFB"/>
</g>
</svg>
