<svg width="156" height="122" viewBox="0 0 156 122" fill="none" xmlns="http://www.w3.org/2000/svg">
<g id="automation2">
<g id="Group 34">
<path id="Vector 4" d="M112.041 46.7523C111.238 46.5472 110.421 47.0316 110.216 47.8343L106.874 60.914C106.668 61.7166 107.153 62.5335 107.955 62.7386C108.758 62.9437 109.575 62.4593 109.78 61.6567L112.751 50.0303L124.378 53.0013C125.18 53.2064 125.997 52.722 126.202 51.9194C126.407 51.1167 125.923 50.2998 125.12 50.0947L112.041 46.7523ZM60.529 87.5941L59.3348 88.5018C69.5606 101.954 89.8802 103.214 104.022 95.5571C111.161 91.6918 116.896 85.484 119.061 77.2298C121.228 68.9679 119.755 58.9012 112.959 47.4406L111.669 48.2056L110.379 48.9707C116.878 59.932 118.073 69.1738 116.159 76.4687C114.244 83.7713 109.151 89.3688 102.594 92.919C89.3437 100.093 70.7984 98.6252 61.7232 86.6863L60.529 87.5941Z" fill="#F9FAFB"/>
<path id="Vector 5" d="M45.2915 69.5475C46.0869 69.7792 46.9194 69.3222 47.1511 68.5268L50.926 55.5653C51.1577 54.77 50.7007 53.9374 49.9053 53.7057C49.1099 53.4741 48.2773 53.9311 48.0457 54.7265L44.6902 66.2478L33.1689 62.8923C32.3735 62.6606 31.5409 63.1176 31.3093 63.913C31.0776 64.7084 31.5346 65.541 32.33 65.7726L45.2915 69.5475ZM98.1311 30.4391L99.3547 29.5716C89.5814 15.787 69.3148 13.8529 54.9262 21.036C47.6627 24.6621 41.7248 30.676 39.2869 38.8537C36.8468 47.0391 37.9849 57.1491 44.396 68.8291L45.7109 68.1074L47.0259 67.3856C40.8941 56.2145 40.0074 46.9381 42.1619 39.7108C44.3187 32.4758 49.5948 27.0506 56.2662 23.7201C69.7474 16.9901 88.2337 19.073 96.9074 31.3067L98.1311 30.4391Z" fill="#F9FAFB"/>
<g id="gear_box2">
<path id="gear1" d="M69.9609 45.2697C69.4849 41.0131 75.3806 39.4334 77.0967 43.3576V43.3576C78.2231 45.9334 81.6838 46.389 83.4386 44.1925V44.1925C86.1118 40.8461 91.3977 43.8979 89.8364 47.8862V47.8862C88.8115 50.5041 90.9364 53.2734 93.7304 52.961V52.961C97.9869 52.485 99.5667 58.3806 95.6425 60.0967V60.0967C93.0666 61.2232 92.611 64.6839 94.8076 66.4386V66.4386C98.1539 69.1119 95.1022 74.3978 91.1138 72.8364V72.8364C88.4959 71.8115 85.7267 73.9365 86.0391 76.7304V76.7304C86.5151 80.987 80.6194 82.5667 78.9033 78.6425V78.6425C77.7769 76.0667 74.3162 75.6111 72.5614 77.8076V77.8076C69.8882 81.154 64.6023 78.1022 66.1636 74.1139V74.1139C67.1885 71.496 65.0636 68.7267 62.2696 69.0392V69.0392C58.0131 69.5151 56.4333 63.6195 60.3575 61.9034V61.9034C62.9334 60.7769 63.389 57.3162 61.1924 55.5615V55.5615C57.8461 52.8882 60.8978 47.6023 64.8861 49.1637V49.1637C67.5041 50.1886 70.2733 48.0636 69.9609 45.2697V45.2697Z" fill="#F9FAFB"/>
<ellipse id="inner_circle1" cx="78.0003" cy="60.9999" rx="10.2594" ry="10.2594" transform="rotate(-15.0003 78.0003 60.9999)" fill="#182025"/>
</g>
</g>
</g>
</svg>
