<svg width="156" height="122" viewBox="0 0 156 122" fill="none" xmlns="http://www.w3.org/2000/svg">
<g id="automation" clip-path="url(#clip0_93_10)">
<path id="Vector 4" d="M97.2635 4.19163C96.8171 3.4938 95.8895 3.29001 95.1916 3.73646L83.8197 11.0118C83.1219 11.4582 82.9181 12.3858 83.3646 13.0837C83.811 13.7815 84.7386 13.9853 85.4365 13.5388L95.5448 7.07191L102.012 17.1803C102.458 17.8781 103.386 18.0819 104.084 17.6354C104.782 17.189 104.985 16.2614 104.539 15.5635L97.2635 4.19163ZM10 112C10.3223 113.465 10.3234 113.465 10.3248 113.464C10.3256 113.464 10.3273 113.464 10.3289 113.463C10.3322 113.463 10.3364 113.462 10.3416 113.461C10.352 113.458 10.3664 113.455 10.3847 113.451C10.4213 113.442 10.4736 113.43 10.5411 113.414C10.6761 113.381 10.8721 113.332 11.1256 113.265C11.6326 113.131 12.3699 112.925 13.3103 112.63C15.1909 112.04 17.8847 111.096 21.1736 109.674C27.751 106.828 36.7138 102.065 46.3126 94.379C65.5313 78.9899 87.2228 51.9434 97.4651 5.32186L96 5L94.5349 4.67814C84.4439 50.6116 63.1354 77.0651 44.4374 92.0372C35.0778 99.5318 26.3532 104.164 19.9826 106.92C16.7976 108.298 14.2023 109.206 12.4123 109.767C11.5174 110.048 10.8241 110.242 10.3592 110.365C10.1268 110.426 9.95158 110.47 9.83687 110.498C9.77951 110.512 9.73729 110.521 9.71063 110.528C9.6973 110.531 9.68785 110.533 9.68236 110.534C9.67961 110.535 9.67784 110.535 9.67707 110.535C9.67669 110.535 9.67686 110.535 9.67666 110.535C9.67708 110.535 9.67774 110.535 10 112Z" fill="#F9FAFB"/>
<g id="gear_box2">
<path id="gear1" d="M88.2502 78.1395C88.7281 74.987 93.2719 74.987 93.7498 78.1395V78.1395C94.0635 80.2088 96.4643 81.2032 98.1493 79.9618V79.9618C100.716 78.0706 103.929 81.2836 102.038 83.8507V83.8507C100.797 85.5357 101.791 87.9365 103.861 88.2502V88.2502C107.013 88.7281 107.013 93.2719 103.861 93.7498V93.7498C101.791 94.0635 100.797 96.4643 102.038 98.1493V98.1493C103.929 100.716 100.716 103.929 98.1493 102.038V102.038C96.4643 100.797 94.0635 101.791 93.7498 103.861V103.861C93.2719 107.013 88.7281 107.013 88.2502 103.861V103.861C87.9365 101.791 85.5357 100.797 83.8507 102.038V102.038C81.2836 103.929 78.0706 100.716 79.9618 98.1493V98.1493C81.2032 96.4643 80.2088 94.0635 78.1395 93.7498V93.7498C74.987 93.2719 74.987 88.7281 78.1395 88.2502V88.2502C80.2088 87.9365 81.2032 85.5357 79.9618 83.8507V83.8507C78.0706 81.2836 81.2836 78.0706 83.8507 79.9618V79.9618C85.5357 81.2032 87.9365 80.2088 88.2502 78.1395V78.1395Z" fill="#F9FAFB"/>
<circle id="inner_circle1" cx="91" cy="91" r="7.63768" fill="#182025"/>
</g>
<g id="gear_box2_2">
<path id="gear1_2" d="M108.157 57.863C107.768 54.3797 112.592 53.0869 113.997 56.2983V56.2983C114.919 58.4062 117.751 58.7791 119.187 56.9815V56.9815C121.374 54.243 125.7 56.7404 124.422 60.0043V60.0043C123.584 62.1467 125.323 64.4129 127.609 64.1572V64.1572C131.092 63.7677 132.385 68.5924 129.174 69.9968V69.9968C127.066 70.9186 126.693 73.7507 128.491 75.1867V75.1867C131.229 77.3744 128.732 81.7001 125.468 80.4224V80.4224C123.325 79.5837 121.059 81.3226 121.315 83.6091V83.6091C121.704 87.0924 116.88 88.3852 115.475 85.1738V85.1738C114.553 83.0659 111.721 82.693 110.285 84.4906V84.4906C108.098 87.2291 103.772 84.7317 105.05 81.4678V81.4678C105.888 79.3254 104.149 77.0592 101.863 77.3149V77.3149C98.3797 77.7044 97.0869 72.8797 100.298 71.4753V71.4753C102.406 70.5534 102.779 67.7214 100.982 66.2854V66.2854C98.243 64.0977 100.74 59.772 104.004 61.0497V61.0497C106.147 61.8884 108.413 60.1495 108.157 57.863V57.863Z" fill="#F9FAFB"/>
<circle id="inner_circle1_2" cx="114.736" cy="70.736" r="8.39584" transform="rotate(-15.0003 114.736 70.736)" fill="#182025"/>
</g>
</g>
<defs>
<clipPath id="clip0_93_10">
<rect width="156" height="122" fill="white"/>
</clipPath>
</defs>
</svg>
