<svg width="114" height="122" viewBox="0 0 114 122" fill="none" xmlns="http://www.w3.org/2000/svg">
<g id="backend">
<g id="Vector 2">
<path d="M70.6339 112L83 94.9676V11L70.6339 30.074C70.6339 62.0681 70.6339 112 70.6339 112Z" fill="#182025"/>
<path d="M30 30.074V112H70.6339C70.6339 112 70.6339 62.0681 70.6339 30.074C62.3546 30.074 49.4336 30.074 49.4336 30.074H30Z" fill="#182025"/>
<path d="M45.0162 11L30 30.074H49.4336C49.4336 30.074 62.3546 30.074 70.6339 30.074L83 11H45.0162Z" fill="#182025"/>
<path d="M30 30.074V112H70.6339M30 30.074L45.0162 11H83M30 30.074H49.4336C49.4336 30.074 62.3546 30.074 70.6339 30.074M70.6339 112L83 94.9676V11M70.6339 112C70.6339 112 70.6339 62.0681 70.6339 30.074M83 11L70.6339 30.074M38.2242 41.8817H59.2418M38.2242 52.7811H59.2418M38.2242 62.7722H59.2418" stroke="#F9FAFB" stroke-width="3"/>
</g>
</g>
</svg>
