<svg width="98" height="168" viewBox="0 0 98 168" fill="none" xmlns="http://www.w3.org/2000/svg">
<g id="card" clip-path="url(#clip0_83_260)">
<g id="Group 25">
<g id="Group 17">
<g id="Rectangle 15">
<rect x="0.5" y="0.5" width="96.8501" height="152.76" rx="9.5" fill="white"/>
<rect x="0.5" y="0.5" width="96.8501" height="152.76" rx="9.5" fill="white"/>
<rect x="0.5" y="0.5" width="96.8501" height="152.76" rx="9.5" fill="white"/>
<rect x="0.5" y="0.5" width="96.8501" height="152.76" rx="9.5" fill="white"/>
<rect x="0.5" y="0.5" width="96.8501" height="152.76" rx="9.5" fill="white"/>
<rect x="0.5" y="0.5" width="96.8501" height="152.76" rx="9.5" fill="#F9FAFB"/>
<rect x="0.5" y="0.5" width="96.8501" height="152.76" rx="9.5" fill="#F9FAFB"/>
<rect x="0.5" y="0.5" width="96.8501" height="152.76" rx="9.5" fill="#F9FAFB"/>
<rect x="0.5" y="0.5" width="96.8501" height="152.76" rx="9.5" fill="#F9FAFB"/>
<rect x="0.5" y="0.5" width="96.8501" height="152.76" rx="9.5" fill="#F9FAFB"/>
<rect x="0.5" y="0.5" width="96.8501" height="152.76" rx="9.5" fill="#F9FAFB"/>
<rect x="0.5" y="0.5" width="96.8501" height="152.76" rx="9.5" fill="#F9FAFB"/>
<rect x="0.5" y="0.5" width="96.8501" height="152.76" rx="9.5" stroke="white"/>
</g>
</g>
<g id="Group 21">
<g id="Rectangle 15_2">
<rect x="14.5923" y="142.432" width="69.46" height="25.0209" rx="9.5" fill="white"/>
<rect x="14.5923" y="142.432" width="69.46" height="25.0209" rx="9.5" fill="white"/>
<rect x="14.5923" y="142.432" width="69.46" height="25.0209" rx="9.5" fill="white"/>
<rect x="14.5923" y="142.432" width="69.46" height="25.0209" rx="9.5" fill="white"/>
<rect x="14.5923" y="142.432" width="69.46" height="25.0209" rx="9.5" fill="white"/>
<rect x="14.5923" y="142.432" width="69.46" height="25.0209" rx="9.5" fill="#F9FAFB"/>
<rect x="14.5923" y="142.432" width="69.46" height="25.0209" rx="9.5" fill="#F9FAFB"/>
<rect x="14.5923" y="142.432" width="69.46" height="25.0209" rx="9.5" fill="#F9FAFB"/>
<rect x="14.5923" y="142.432" width="69.46" height="25.0209" rx="9.5" fill="#F9FAFB"/>
<rect x="14.5923" y="142.432" width="69.46" height="25.0209" rx="9.5" fill="#F9FAFB"/>
<rect x="14.5923" y="142.432" width="69.46" height="25.0209" rx="9.5" fill="#F9FAFB"/>
<rect x="14.5923" y="142.432" width="69.46" height="25.0209" rx="9.5" fill="#6B767B"/>
<rect x="14.5923" y="142.432" width="69.46" height="25.0209" rx="9.5" stroke="white"/>
</g>
</g>
<line id="Line 5" x1="16.4409" y1="26.3865" x2="82.2036" y2="26.3865" stroke="#182025" stroke-width="4"/>
<path id="Line 6" d="M7.0459 72.149H90.4236" stroke="#182025" stroke-width="4"/>
<path id="Line 7" d="M7.0459 89.8904H90.4236" stroke="#182025" stroke-width="4"/>
<path id="Line 8" d="M7.0459 111.18H63.4139" stroke="#182025" stroke-width="4"/>
</g>
</g>
<defs>
<clipPath id="clip0_83_260">
<rect width="98" height="168" fill="white"/>
</clipPath>
</defs>
</svg>
