<svg width="114" height="122" viewBox="0 0 114 122" fill="none" xmlns="http://www.w3.org/2000/svg">
<g id="contact">
<g id="Group 37">
<circle id="Ellipse 6" cx="57.3867" cy="61.3867" r="49.3867" fill="#F9FAFB"/>
<g id="Group 42">
<path id="Vector 16" d="M91 60C91 57.7909 89.2091 56 87 56H56C53.7909 56 52 57.7909 52 60V79.2C52 81.4091 53.7909 83.2 56 83.2H70.4901C70.7684 83.2 71.034 83.3159 71.2232 83.5199L73.7691 86.264C75.0057 87.5968 77.2353 86.7218 77.2353 84.9037V84.2C77.2353 83.6477 77.683 83.2 78.2353 83.2H87C89.2091 83.2 91 81.4091 91 79.2V60Z" fill="#182025" stroke="#F9FAFB" stroke-width="2"/>
<path id="Vector 15" d="M25 39C25 36.7909 26.7909 35 29 35H68C70.2091 35 72 36.7909 72 39V63.8C72 66.0091 70.2091 67.8 68 67.8H49.6277C49.3494 67.8 49.0836 67.916 48.8944 68.1201L45.0548 72.2612C43.8185 73.5946 41.5882 72.7198 41.5882 70.9014V68.8C41.5882 68.2477 41.1405 67.8 40.5882 67.8H29C26.7909 67.8 25 66.0091 25 63.8V39Z" fill="#182025" stroke="#F9FAFB" stroke-width="2"/>
</g>
<circle id="Ellipse 8" cx="57.3867" cy="61.3867" r="44.3867" stroke="#F9FAFB" stroke-width="10"/>
</g>
</g>
</svg>
