<svg width="114" height="122" viewBox="0 0 114 122" fill="none" xmlns="http://www.w3.org/2000/svg">
<g id="education">
<g id="Group 37">
<circle id="Ellipse 6" cx="57.3867" cy="61.3867" r="49.3867" fill="#F9FAFB"/>
<g id="Group 38">
<path id="Rectangle 19" d="M31 50C31 47.7909 32.7909 46 35 46H78C80.2091 46 82 47.7909 82 50V72.6076C82 73.0734 81.8206 73.5214 81.4991 73.8586V73.8586C68.4778 87.5129 46.8941 88.1482 33.0921 75.2834L31.611 73.9029C31.2213 73.5396 31 73.0308 31 72.498V50Z" fill="#182025"/>
<path id="Vector 14" d="M84.5 69.5C84.5 70.3284 85.1716 71 86 71C86.8284 71 87.5 70.3284 87.5 69.5H84.5ZM86 54H84.5V69.5H86H87.5V54H86Z" fill="#182025"/>
<path id="Vector 13" d="M57.854 69.5L19 50.4235L57.854 32L94.0588 50.4235L57.854 69.5Z" fill="#182025" stroke="#F9FAFB" stroke-width="3"/>
</g>
<circle id="Ellipse 8" cx="57.3867" cy="61.3867" r="44.3867" stroke="#F9FAFB" stroke-width="10"/>
</g>
</g>
</svg>
