<svg width="114" height="122" viewBox="0 0 114 122" fill="none" xmlns="http://www.w3.org/2000/svg">
<g id="error">
<g id="Group 37">
<circle id="Ellipse 6" cx="57.3867" cy="61.3867" r="49.3867" fill="#F9FAFB"/>
<g id="Group 42">
<path id="Vector 15" d="M26 44C26 41.7909 27.7909 40 30 40H83C85.2091 40 87 41.7909 87 44V78.5702C87 80.7793 85.2091 82.5702 83 82.5702H57.8336C57.5552 82.5702 57.2895 82.6862 57.1003 82.8903L50.996 89.4739C49.7596 90.8074 47.5294 89.9326 47.5294 88.1141V83.5702C47.5294 83.0179 47.0817 82.5702 46.5294 82.5702H30C27.7909 82.5702 26 80.7793 26 78.5702V44Z" fill="#182025" stroke="#F9FAFB" stroke-width="2"/>
<path id="!" d="M56.896 68.664C55.48 68.664 54.748 67.956 54.7 66.54L54.412 51.6C54.388 50.952 54.616 50.436 55.096 50.052C55.576 49.644 56.176 49.44 56.896 49.44C57.616 49.44 58.216 49.644 58.696 50.052C59.2 50.436 59.44 50.952 59.416 51.6L59.128 66.54C59.104 67.236 58.9 67.764 58.516 68.124C58.132 68.484 57.592 68.664 56.896 68.664ZM56.896 75.36C55.936 75.36 55.18 75.12 54.628 74.64C54.076 74.136 53.8 73.488 53.8 72.696C53.8 71.88 54.076 71.22 54.628 70.716C55.18 70.212 55.936 69.96 56.896 69.96C57.856 69.96 58.612 70.212 59.164 70.716C59.716 71.22 59.992 71.88 59.992 72.696C59.992 73.488 59.716 74.136 59.164 74.64C58.612 75.12 57.856 75.36 56.896 75.36Z" fill="#F9FAFB"/>
</g>
<circle id="Ellipse 8" cx="57.3867" cy="61.3867" r="44.3867" stroke="#F9FAFB" stroke-width="10"/>
</g>
</g>
</svg>
