<svg width="482" height="225" viewBox="0 0 482 225" fill="none" xmlns="http://www.w3.org/2000/svg">
<rect x="11.5" y="10.5" width="459" height="204" rx="9.5" fill="#182025" stroke="white"/>
<rect x="31.1208" y="55.9261" width="61.2364" height="103.501" rx="9.5" fill="white"/>
<rect x="31.1208" y="55.9261" width="61.2364" height="103.501" rx="9.5" fill="white"/>
<rect x="31.1208" y="55.9261" width="61.2364" height="103.501" rx="9.5" fill="white"/>
<rect x="31.1208" y="55.9261" width="61.2364" height="103.501" rx="9.5" fill="white"/>
<rect x="31.1208" y="55.9261" width="61.2364" height="103.501" rx="9.5" fill="white"/>
<rect x="31.1208" y="55.9261" width="61.2364" height="103.501" rx="9.5" fill="#F9FAFB"/>
<rect x="31.1208" y="55.9261" width="61.2364" height="103.501" rx="9.5" fill="#F9FAFB"/>
<rect x="31.1208" y="55.9261" width="61.2364" height="103.501" rx="9.5" fill="#F9FAFB"/>
<rect x="31.1208" y="55.9261" width="61.2364" height="103.501" rx="9.5" fill="#F9FAFB"/>
<rect x="31.1208" y="55.9261" width="61.2364" height="103.501" rx="9.5" fill="#F9FAFB"/>
<rect x="31.1208" y="55.9261" width="61.2364" height="103.501" rx="9.5" fill="#F9FAFB"/>
<rect x="31.1208" y="55.9261" width="61.2364" height="103.501" rx="9.5" fill="#F9FAFB"/>
<rect x="31.1208" y="55.9261" width="61.2364" height="103.501" rx="9.5" stroke="white"/>
<rect x="40.084" y="152.389" width="43.8152" height="16.6849" rx="8.34243" fill="white"/>
<rect x="40.084" y="152.389" width="43.8152" height="16.6849" rx="8.34243" fill="white"/>
<rect x="40.084" y="152.389" width="43.8152" height="16.6849" rx="8.34243" fill="white"/>
<rect x="40.084" y="152.389" width="43.8152" height="16.6849" rx="8.34243" fill="white"/>
<rect x="40.084" y="152.389" width="43.8152" height="16.6849" rx="8.34243" fill="white"/>
<rect x="40.084" y="152.389" width="43.8152" height="16.6849" rx="8.34243" fill="#F9FAFB"/>
<rect x="40.084" y="152.389" width="43.8152" height="16.6849" rx="8.34243" fill="#F9FAFB"/>
<rect x="40.084" y="152.389" width="43.8152" height="16.6849" rx="8.34243" fill="#F9FAFB"/>
<rect x="40.084" y="152.389" width="43.8152" height="16.6849" rx="8.34243" fill="#F9FAFB"/>
<rect x="40.084" y="152.389" width="43.8152" height="16.6849" rx="8.34243" fill="#F9FAFB"/>
<rect x="40.084" y="152.389" width="43.8152" height="16.6849" rx="8.34243" fill="#F9FAFB"/>
<rect x="40.084" y="152.389" width="43.8152" height="16.6849" rx="8.34243" fill="#6B767B"/>
<rect x="40.084" y="152.389" width="43.8152" height="16.6849" rx="8.34243" stroke="white"/>
<line x1="41.0776" y1="72.7186" x2="82.9052" y2="72.7186" stroke="#182025" stroke-width="4"/>
<path d="M35.1023 104.461H88.1337" stroke="#182025" stroke-width="4"/>
<path d="M35.1023 116.519H88.1337" stroke="#182025" stroke-width="4"/>
<path d="M35.1023 130.989H70.9545" stroke="#182025" stroke-width="4"/>
<rect x="150.628" y="55.9261" width="61.2364" height="103.501" rx="9.5" fill="white"/>
<rect x="150.628" y="55.9261" width="61.2364" height="103.501" rx="9.5" fill="white"/>
<rect x="150.628" y="55.9261" width="61.2364" height="103.501" rx="9.5" fill="white"/>
<rect x="150.628" y="55.9261" width="61.2364" height="103.501" rx="9.5" fill="white"/>
<rect x="150.628" y="55.9261" width="61.2364" height="103.501" rx="9.5" fill="white"/>
<rect x="150.628" y="55.9261" width="61.2364" height="103.501" rx="9.5" fill="#F9FAFB"/>
<rect x="150.628" y="55.9261" width="61.2364" height="103.501" rx="9.5" fill="#F9FAFB"/>
<rect x="150.628" y="55.9261" width="61.2364" height="103.501" rx="9.5" fill="#F9FAFB"/>
<rect x="150.628" y="55.9261" width="61.2364" height="103.501" rx="9.5" fill="#F9FAFB"/>
<rect x="150.628" y="55.9261" width="61.2364" height="103.501" rx="9.5" fill="#F9FAFB"/>
<rect x="150.628" y="55.9261" width="61.2364" height="103.501" rx="9.5" fill="#F9FAFB"/>
<rect x="150.628" y="55.9261" width="61.2364" height="103.501" rx="9.5" fill="#F9FAFB"/>
<rect x="150.628" y="55.9261" width="61.2364" height="103.501" rx="9.5" stroke="white"/>
<rect x="159.591" y="152.389" width="43.8152" height="16.6849" rx="8.34243" fill="white"/>
<rect x="159.591" y="152.389" width="43.8152" height="16.6849" rx="8.34243" fill="white"/>
<rect x="159.591" y="152.389" width="43.8152" height="16.6849" rx="8.34243" fill="white"/>
<rect x="159.591" y="152.389" width="43.8152" height="16.6849" rx="8.34243" fill="white"/>
<rect x="159.591" y="152.389" width="43.8152" height="16.6849" rx="8.34243" fill="white"/>
<rect x="159.591" y="152.389" width="43.8152" height="16.6849" rx="8.34243" fill="#F9FAFB"/>
<rect x="159.591" y="152.389" width="43.8152" height="16.6849" rx="8.34243" fill="#F9FAFB"/>
<rect x="159.591" y="152.389" width="43.8152" height="16.6849" rx="8.34243" fill="#F9FAFB"/>
<rect x="159.591" y="152.389" width="43.8152" height="16.6849" rx="8.34243" fill="#F9FAFB"/>
<rect x="159.591" y="152.389" width="43.8152" height="16.6849" rx="8.34243" fill="#F9FAFB"/>
<rect x="159.591" y="152.389" width="43.8152" height="16.6849" rx="8.34243" fill="#F9FAFB"/>
<rect x="159.591" y="152.389" width="43.8152" height="16.6849" rx="8.34243" fill="#6B767B"/>
<rect x="159.591" y="152.389" width="43.8152" height="16.6849" rx="8.34243" stroke="white"/>
<line x1="160.585" y1="72.7186" x2="202.413" y2="72.7186" stroke="#182025" stroke-width="4"/>
<path d="M154.61 104.461H207.641" stroke="#182025" stroke-width="4"/>
<path d="M154.61 116.519H207.641" stroke="#182025" stroke-width="4"/>
<path d="M154.61 130.989H190.462" stroke="#182025" stroke-width="4"/>
<rect x="270.135" y="55.9261" width="61.2364" height="103.501" rx="9.5" fill="white"/>
<rect x="270.135" y="55.9261" width="61.2364" height="103.501" rx="9.5" fill="white"/>
<rect x="270.135" y="55.9261" width="61.2364" height="103.501" rx="9.5" fill="white"/>
<rect x="270.135" y="55.9261" width="61.2364" height="103.501" rx="9.5" fill="white"/>
<rect x="270.135" y="55.9261" width="61.2364" height="103.501" rx="9.5" fill="white"/>
<rect x="270.135" y="55.9261" width="61.2364" height="103.501" rx="9.5" fill="#F9FAFB"/>
<rect x="270.135" y="55.9261" width="61.2364" height="103.501" rx="9.5" fill="#F9FAFB"/>
<rect x="270.135" y="55.9261" width="61.2364" height="103.501" rx="9.5" fill="#F9FAFB"/>
<rect x="270.135" y="55.9261" width="61.2364" height="103.501" rx="9.5" fill="#F9FAFB"/>
<rect x="270.135" y="55.9261" width="61.2364" height="103.501" rx="9.5" fill="#F9FAFB"/>
<rect x="270.135" y="55.9261" width="61.2364" height="103.501" rx="9.5" fill="#F9FAFB"/>
<rect x="270.135" y="55.9261" width="61.2364" height="103.501" rx="9.5" fill="#F9FAFB"/>
<rect x="270.135" y="55.9261" width="61.2364" height="103.501" rx="9.5" stroke="white"/>
<rect x="279.099" y="152.389" width="43.8152" height="16.6849" rx="8.34243" fill="white"/>
<rect x="279.099" y="152.389" width="43.8152" height="16.6849" rx="8.34243" fill="white"/>
<rect x="279.099" y="152.389" width="43.8152" height="16.6849" rx="8.34243" fill="white"/>
<rect x="279.099" y="152.389" width="43.8152" height="16.6849" rx="8.34243" fill="white"/>
<rect x="279.099" y="152.389" width="43.8152" height="16.6849" rx="8.34243" fill="white"/>
<rect x="279.099" y="152.389" width="43.8152" height="16.6849" rx="8.34243" fill="#F9FAFB"/>
<rect x="279.099" y="152.389" width="43.8152" height="16.6849" rx="8.34243" fill="#F9FAFB"/>
<rect x="279.099" y="152.389" width="43.8152" height="16.6849" rx="8.34243" fill="#F9FAFB"/>
<rect x="279.099" y="152.389" width="43.8152" height="16.6849" rx="8.34243" fill="#F9FAFB"/>
<rect x="279.099" y="152.389" width="43.8152" height="16.6849" rx="8.34243" fill="#F9FAFB"/>
<rect x="279.099" y="152.389" width="43.8152" height="16.6849" rx="8.34243" fill="#F9FAFB"/>
<rect x="279.099" y="152.389" width="43.8152" height="16.6849" rx="8.34243" fill="#6B767B"/>
<rect x="279.099" y="152.389" width="43.8152" height="16.6849" rx="8.34243" stroke="white"/>
<line x1="280.093" y1="72.7186" x2="321.92" y2="72.7186" stroke="#182025" stroke-width="4"/>
<path d="M274.117 104.461H327.149" stroke="#182025" stroke-width="4"/>
<path d="M274.117 116.519H327.149" stroke="#182025" stroke-width="4"/>
<path d="M274.117 130.989H309.969" stroke="#182025" stroke-width="4"/>
<rect x="389.643" y="55.9261" width="61.2364" height="103.501" rx="9.5" fill="white"/>
<rect x="389.643" y="55.9261" width="61.2364" height="103.501" rx="9.5" fill="white"/>
<rect x="389.643" y="55.9261" width="61.2364" height="103.501" rx="9.5" fill="white"/>
<rect x="389.643" y="55.9261" width="61.2364" height="103.501" rx="9.5" fill="white"/>
<rect x="389.643" y="55.9261" width="61.2364" height="103.501" rx="9.5" fill="white"/>
<rect x="389.643" y="55.9261" width="61.2364" height="103.501" rx="9.5" fill="#F9FAFB"/>
<rect x="389.643" y="55.9261" width="61.2364" height="103.501" rx="9.5" fill="#F9FAFB"/>
<rect x="389.643" y="55.9261" width="61.2364" height="103.501" rx="9.5" fill="#F9FAFB"/>
<rect x="389.643" y="55.9261" width="61.2364" height="103.501" rx="9.5" fill="#F9FAFB"/>
<rect x="389.643" y="55.9261" width="61.2364" height="103.501" rx="9.5" fill="#F9FAFB"/>
<rect x="389.643" y="55.9261" width="61.2364" height="103.501" rx="9.5" fill="#F9FAFB"/>
<rect x="389.643" y="55.9261" width="61.2364" height="103.501" rx="9.5" fill="#F9FAFB"/>
<rect x="389.643" y="55.9261" width="61.2364" height="103.501" rx="9.5" stroke="white"/>
<rect x="398.606" y="152.389" width="43.8152" height="16.6849" rx="8.34243" fill="white"/>
<rect x="398.606" y="152.389" width="43.8152" height="16.6849" rx="8.34243" fill="white"/>
<rect x="398.606" y="152.389" width="43.8152" height="16.6849" rx="8.34243" fill="white"/>
<rect x="398.606" y="152.389" width="43.8152" height="16.6849" rx="8.34243" fill="white"/>
<rect x="398.606" y="152.389" width="43.8152" height="16.6849" rx="8.34243" fill="white"/>
<rect x="398.606" y="152.389" width="43.8152" height="16.6849" rx="8.34243" fill="#F9FAFB"/>
<rect x="398.606" y="152.389" width="43.8152" height="16.6849" rx="8.34243" fill="#F9FAFB"/>
<rect x="398.606" y="152.389" width="43.8152" height="16.6849" rx="8.34243" fill="#F9FAFB"/>
<rect x="398.606" y="152.389" width="43.8152" height="16.6849" rx="8.34243" fill="#F9FAFB"/>
<rect x="398.606" y="152.389" width="43.8152" height="16.6849" rx="8.34243" fill="#F9FAFB"/>
<rect x="398.606" y="152.389" width="43.8152" height="16.6849" rx="8.34243" fill="#F9FAFB"/>
<rect x="398.606" y="152.389" width="43.8152" height="16.6849" rx="8.34243" fill="#6B767B"/>
<rect x="398.606" y="152.389" width="43.8152" height="16.6849" rx="8.34243" stroke="white"/>
<line x1="399.6" y1="72.7186" x2="441.427" y2="72.7186" stroke="#182025" stroke-width="4"/>
<path d="M393.624 104.461H446.656" stroke="#182025" stroke-width="4"/>
<path d="M393.624 116.519H446.656" stroke="#182025" stroke-width="4"/>
<path d="M393.624 130.989H429.476" stroke="#182025" stroke-width="4"/>
</svg>
