<svg width="184" height="301" viewBox="0 0 184 301" fill="none" xmlns="http://www.w3.org/2000/svg">
<rect x="14.5" y="7.5" width="155" height="285" rx="9.5" fill="#182025" stroke="white"/>
<rect x="62.5" y="157.5" width="56.0951" height="88.7183" rx="9.5" fill="white"/>
<rect x="62.5" y="157.5" width="56.0951" height="88.7183" rx="9.5" fill="white"/>
<rect x="62.5" y="157.5" width="56.0951" height="88.7183" rx="9.5" fill="white"/>
<rect x="62.5" y="157.5" width="56.0951" height="88.7183" rx="9.5" fill="white"/>
<rect x="62.5" y="157.5" width="56.0951" height="88.7183" rx="9.5" fill="white"/>
<rect x="62.5" y="157.5" width="56.0951" height="88.7183" rx="9.5" fill="#F9FAFB"/>
<rect x="62.5" y="157.5" width="56.0951" height="88.7183" rx="9.5" fill="#F9FAFB"/>
<rect x="62.5" y="157.5" width="56.0951" height="88.7183" rx="9.5" fill="#F9FAFB"/>
<rect x="62.5" y="157.5" width="56.0951" height="88.7183" rx="9.5" fill="#F9FAFB"/>
<rect x="62.5" y="157.5" width="56.0951" height="88.7183" rx="9.5" fill="#F9FAFB"/>
<rect x="62.5" y="157.5" width="56.0951" height="88.7183" rx="9.5" fill="#F9FAFB"/>
<rect x="62.5" y="157.5" width="56.0951" height="88.7183" rx="9.5" fill="#F9FAFB"/>
<rect x="62.5" y="157.5" width="56.0951" height="88.7183" rx="9.5" stroke="white"/>
<rect x="70.7227" y="240.317" width="40.1131" height="14.1831" rx="7.09155" fill="white"/>
<rect x="70.7227" y="240.317" width="40.1131" height="14.1831" rx="7.09155" fill="white"/>
<rect x="70.7227" y="240.317" width="40.1131" height="14.1831" rx="7.09155" fill="white"/>
<rect x="70.7227" y="240.317" width="40.1131" height="14.1831" rx="7.09155" fill="white"/>
<rect x="70.7227" y="240.317" width="40.1131" height="14.1831" rx="7.09155" fill="white"/>
<rect x="70.7227" y="240.317" width="40.1131" height="14.1831" rx="7.09155" fill="#F9FAFB"/>
<rect x="70.7227" y="240.317" width="40.1131" height="14.1831" rx="7.09155" fill="#F9FAFB"/>
<rect x="70.7227" y="240.317" width="40.1131" height="14.1831" rx="7.09155" fill="#F9FAFB"/>
<rect x="70.7227" y="240.317" width="40.1131" height="14.1831" rx="7.09155" fill="#F9FAFB"/>
<rect x="70.7227" y="240.317" width="40.1131" height="14.1831" rx="7.09155" fill="#F9FAFB"/>
<rect x="70.7227" y="240.317" width="40.1131" height="14.1831" rx="7.09155" fill="#F9FAFB"/>
<rect x="70.7227" y="240.317" width="40.1131" height="14.1831" rx="7.09155" fill="#6B767B"/>
<rect x="70.7227" y="240.317" width="40.1131" height="14.1831" rx="7.09155" stroke="white"/>
<line x1="71.593" y1="171.563" x2="109.965" y2="171.563" stroke="#182025" stroke-width="4"/>
<path d="M66.1113 199.099H114.762" stroke="#182025" stroke-width="4"/>
<path d="M66.1113 209.451H114.762" stroke="#182025" stroke-width="4"/>
<path d="M66.1113 221.873H99.0018" stroke="#182025" stroke-width="4"/>
<rect x="62.5" y="23.5" width="56.0951" height="88.7183" rx="9.5" fill="white"/>
<rect x="62.5" y="23.5" width="56.0951" height="88.7183" rx="9.5" fill="white"/>
<rect x="62.5" y="23.5" width="56.0951" height="88.7183" rx="9.5" fill="white"/>
<rect x="62.5" y="23.5" width="56.0951" height="88.7183" rx="9.5" fill="white"/>
<rect x="62.5" y="23.5" width="56.0951" height="88.7183" rx="9.5" fill="white"/>
<rect x="62.5" y="23.5" width="56.0951" height="88.7183" rx="9.5" fill="#F9FAFB"/>
<rect x="62.5" y="23.5" width="56.0951" height="88.7183" rx="9.5" fill="#F9FAFB"/>
<rect x="62.5" y="23.5" width="56.0951" height="88.7183" rx="9.5" fill="#F9FAFB"/>
<rect x="62.5" y="23.5" width="56.0951" height="88.7183" rx="9.5" fill="#F9FAFB"/>
<rect x="62.5" y="23.5" width="56.0951" height="88.7183" rx="9.5" fill="#F9FAFB"/>
<rect x="62.5" y="23.5" width="56.0951" height="88.7183" rx="9.5" fill="#F9FAFB"/>
<rect x="62.5" y="23.5" width="56.0951" height="88.7183" rx="9.5" fill="#F9FAFB"/>
<rect x="62.5" y="23.5" width="56.0951" height="88.7183" rx="9.5" stroke="white"/>
<rect x="70.7227" y="106.317" width="40.1131" height="14.1831" rx="7.09155" fill="white"/>
<rect x="70.7227" y="106.317" width="40.1131" height="14.1831" rx="7.09155" fill="white"/>
<rect x="70.7227" y="106.317" width="40.1131" height="14.1831" rx="7.09155" fill="white"/>
<rect x="70.7227" y="106.317" width="40.1131" height="14.1831" rx="7.09155" fill="white"/>
<rect x="70.7227" y="106.317" width="40.1131" height="14.1831" rx="7.09155" fill="white"/>
<rect x="70.7227" y="106.317" width="40.1131" height="14.1831" rx="7.09155" fill="#F9FAFB"/>
<rect x="70.7227" y="106.317" width="40.1131" height="14.1831" rx="7.09155" fill="#F9FAFB"/>
<rect x="70.7227" y="106.317" width="40.1131" height="14.1831" rx="7.09155" fill="#F9FAFB"/>
<rect x="70.7227" y="106.317" width="40.1131" height="14.1831" rx="7.09155" fill="#F9FAFB"/>
<rect x="70.7227" y="106.317" width="40.1131" height="14.1831" rx="7.09155" fill="#F9FAFB"/>
<rect x="70.7227" y="106.317" width="40.1131" height="14.1831" rx="7.09155" fill="#F9FAFB"/>
<rect x="70.7227" y="106.317" width="40.1131" height="14.1831" rx="7.09155" fill="#6B767B"/>
<rect x="70.7227" y="106.317" width="40.1131" height="14.1831" rx="7.09155" stroke="white"/>
<line x1="71.593" y1="37.5634" x2="109.965" y2="37.5634" stroke="#182025" stroke-width="4"/>
<path d="M66.1113 65.0986H114.762" stroke="#182025" stroke-width="4"/>
<path d="M66.1113 75.4507H114.762" stroke="#182025" stroke-width="4"/>
<path d="M66.1113 87.8733H99.0018" stroke="#182025" stroke-width="4"/>
</svg>
