<svg  width="193" height="172" viewBox="0 0 193 172" fill="none" xmlns="http://www.w3.org/2000/svg">
<g id="gears" clip-path="url(#clip0_70_3)">
<g id="gear_box2">
<path id="gear1" d="M62.8794 74.375C63.9431 67.358 74.0569 67.358 75.1206 74.375V74.375C75.8188 78.9808 81.1625 81.1943 84.913 78.4311V78.4311C90.6269 74.2216 97.7784 81.3731 93.5689 87.087V87.087C90.8057 90.8375 93.0192 96.1812 97.625 96.8794V96.8794C104.642 97.9431 104.642 108.057 97.625 109.121V109.121C93.0192 109.819 90.8057 115.162 93.5689 118.913V118.913C97.7784 124.627 90.6269 131.778 84.913 127.569V127.569C81.1625 124.806 75.8188 127.019 75.1206 131.625V131.625C74.0569 138.642 63.9431 138.642 62.8794 131.625V131.625C62.1812 127.019 56.8375 124.806 53.087 127.569V127.569C47.3731 131.778 40.2216 124.627 44.4311 118.913V118.913C47.1943 115.162 44.9808 109.819 40.375 109.121V109.121C33.358 108.057 33.358 97.9431 40.375 96.8794V96.8794C44.9808 96.1812 47.1943 90.8375 44.4311 87.087V87.087C40.2216 81.3731 47.3731 74.2216 53.087 78.4311V78.4311C56.8375 81.1943 62.1812 78.9808 62.8794 74.375V74.375Z" fill="#F9FAFB"/>
<circle id="inner_circle1" cx="69" cy="103" r="17" fill="#182025"/>
</g>
<g id="gear_box1">
<path id="gear1_2" d="M117.879 40.375C118.943 33.358 129.057 33.358 130.121 40.375V40.375C130.819 44.9808 136.162 47.1943 139.913 44.4311V44.4311C145.627 40.2216 152.778 47.3731 148.569 53.087V53.087C145.806 56.8375 148.019 62.1812 152.625 62.8794V62.8794C159.642 63.9431 159.642 74.0569 152.625 75.1206V75.1206C148.019 75.8188 145.806 81.1625 148.569 84.913V84.913C152.778 90.6269 145.627 97.7784 139.913 93.5689V93.5689C136.162 90.8057 130.819 93.0192 130.121 97.625V97.625C129.057 104.642 118.943 104.642 117.879 97.625V97.625C117.181 93.0192 111.838 90.8057 108.087 93.5689V93.5689C102.373 97.7784 95.2216 90.6269 99.4311 84.913V84.913C102.194 81.1625 99.9808 75.8188 95.375 75.1206V75.1206C88.358 74.0569 88.358 63.9431 95.375 62.8794V62.8794C99.9808 62.1812 102.194 56.8375 99.4311 53.087V53.087C95.2216 47.3731 102.373 40.2216 108.087 44.4311V44.4311C111.838 47.1943 117.181 44.9808 117.879 40.375V40.375Z" fill="#F9FAFB"/>
<circle id="inner_circle1_2" cx="124" cy="69" r="17" fill="#182025"/>
</g>
</g>
<defs>
<clipPath id="clip0_70_3">
<rect width="193" height="172" fill="white"/>
</clipPath>
</defs>
</svg>
