<svg width="156" height="122" viewBox="0 0 156 122" fill="none" xmlns="http://www.w3.org/2000/svg">
<g id="graph">
<g id="graph_2">
<path id="Line 15" d="M38.5 63V61H34.5V63H38.5ZM38.5 112V63H34.5V112H38.5Z" fill="white"/>
<path id="Line 19" d="M146 112L141 109.113V114.887L146 112ZM10 112.5H141.5V111.5H10V112.5Z" fill="white"/>
<path id="Line 21" d="M10 92H141" stroke="white" stroke-dasharray="2 2"/>
<path id="Line 22" d="M10 72H141" stroke="white" stroke-dasharray="2 2"/>
<path id="Line 23" d="M10 52H141" stroke="white" stroke-dasharray="2 2"/>
<path id="Line 24" d="M10 32H141" stroke="white" stroke-dasharray="2 2"/>
<path id="Line 20" d="M10 10L7.11325 15H12.8868L10 10ZM10.5 112L10.5 14.5H9.5L9.5 112H10.5Z" fill="white"/>
<path id="Line 16" d="M66.5 46V44H62.5V46H66.5ZM66.5 112V46H62.5L62.5 112H66.5Z" fill="white"/>
<path id="Line 17" d="M96.5 78V76H92.5V78H96.5ZM96.5 112V78H92.5V112H96.5Z" fill="white"/>
<path id="Line 18" d="M126.5 28V26H122.5V28H126.5ZM126.5 112V28H122.5V112H126.5Z" fill="white"/>
</g>
</g>
</svg>
