<svg width="114" height="122" viewBox="0 0 114 122" fill="none" xmlns="http://www.w3.org/2000/svg">
<g id="interface">
<g id="Vector 6">
<path d="M54.8205 52.9231V78.0513L63.7949 52.9231H54.8205Z" fill="#F9FAFB"/>
<path d="M46.7436 52.9231L54.8205 78.0513V52.9231H46.7436Z" fill="#F9FAFB"/>
<path d="M19 26C19 30.4183 22.5817 34 27 34C31.4183 34 35 30.4183 35 26C35 21.5817 31.4183 18 27 18C22.5817 18 19 21.5817 19 26ZM54.8205 26H56.3205V24.5H54.8205V26ZM54.8205 96H53.3205V97.5H54.8205V96ZM78.2308 96C78.2308 100.418 81.8125 104 86.2308 104C90.649 104 94.2308 100.418 94.2308 96C94.2308 91.5817 90.649 88 86.2308 88C81.8125 88 78.2308 91.5817 78.2308 96ZM46.7436 52.9231V51.4231H44.6859L45.3155 53.3821L46.7436 52.9231ZM63.7949 52.9231L65.2075 53.4276L65.9234 51.4231H63.7949V52.9231ZM27 26V27.5H54.8205V26V24.5H27V26ZM54.8205 96V97.5H86.2308V96V94.5H54.8205V96ZM54.8205 78.0513H53.3205V96H54.8205H56.3205V78.0513H54.8205ZM54.8205 78.0513L56.2486 77.5923L48.1716 52.4641L46.7436 52.9231L45.3155 53.3821L53.3925 78.5103L54.8205 78.0513ZM63.7949 52.9231L62.3823 52.4186L53.4079 77.5468L54.8205 78.0513L56.2331 78.5558L65.2075 53.4276L63.7949 52.9231ZM54.8205 52.9231H53.3205V78.0513H54.8205H56.3205V52.9231H54.8205ZM63.7949 52.9231V51.4231H54.8205V52.9231V54.4231H63.7949V52.9231ZM46.7436 52.9231V54.4231H54.8205V52.9231V51.4231H46.7436V52.9231ZM54.8205 26H53.3205V52.9231H54.8205H56.3205V26H54.8205Z" fill="#F9FAFB"/>
</g>
</g>
</svg>
