<svg width="66" height="50" viewBox="0 0 66 50" fill="none" xmlns="http://www.w3.org/2000/svg">
<g id="module3">
<g id="Group 32">
<path id="Vector 2" d="M8.76923 39.2308L8.33028 39.4702L8.85364 40.4297L9.2374 39.4063L8.76923 39.2308ZM12.1538 30.2051L12.6346 30.0678L12.2181 28.6099L11.6857 30.0296L12.1538 30.2051ZM46 29.0769L45.5404 29.2739L46.0896 30.5553L46.48 29.2169L46 29.0769ZM53.8974 2L49.7262 5.99171L55.2687 7.60829L53.8974 2ZM16.6667 46L16.1859 46.1374L16.655 47.7791L17.1456 46.1437L16.6667 46ZM20.0513 34.7179L20.5194 34.5424L19.9986 33.1535L19.5724 34.5743L20.0513 34.7179ZM23.4359 43.7436L22.9677 43.9191L23.597 45.5973L23.9273 43.8357L23.4359 43.7436ZM26.8205 25.6923L27.2848 25.5066L26.646 23.9098L26.3291 25.6002L26.8205 25.6923ZM31.3333 36.9744L30.8691 37.1601L31.376 38.4274L31.8077 37.1325L31.3333 36.9744ZM36.9744 20.0513L37.4487 20.2094L37.4487 20.2094L36.9744 20.0513ZM39.2308 13.2821L39.6903 13.0851L39.1723 11.8763L38.7564 13.1239L39.2308 13.2821ZM1.56105 27.0599L8.33028 39.4702L9.20818 38.9913L2.43895 26.5811L1.56105 27.0599ZM9.2374 39.4063L12.622 30.3807L11.6857 30.0296L8.30107 39.0552L9.2374 39.4063ZM46.48 29.2169L53.1174 6.46L52.1574 6.18L45.52 28.9369L46.48 29.2169ZM11.6731 30.3425L16.1859 46.1374L17.1474 45.8626L12.6346 30.0678L11.6731 30.3425ZM17.1456 46.1437L20.5302 34.8616L19.5724 34.5743L16.1878 45.8563L17.1456 46.1437ZM19.5831 34.8935L22.9677 43.9191L23.9041 43.568L20.5194 34.5424L19.5831 34.8935ZM23.9273 43.8357L27.312 25.7845L26.3291 25.6002L22.9445 43.6514L23.9273 43.8357ZM26.3563 25.878L30.8691 37.1601L31.7976 36.7887L27.2848 25.5066L26.3563 25.878ZM31.8077 37.1325L37.4487 20.2094L36.5 19.8932L30.859 36.8162L31.8077 37.1325ZM37.4487 20.2094L39.7051 13.4402L38.7564 13.1239L36.5 19.8932L37.4487 20.2094ZM38.7712 13.479L45.5404 29.2739L46.4596 28.88L39.6903 13.0851L38.7712 13.479Z" fill="#F9FAFB"/>
<path id="$" d="M56.8736 44.8182V26.6364H57.5625V44.8182H56.8736ZM60.9432 32.0909C60.8674 31.1866 60.4981 30.455 59.8352 29.8963C59.1771 29.3376 58.3248 29.0582 57.2784 29.0582C56.5729 29.0582 55.9455 29.1884 55.3963 29.4489C54.8471 29.7093 54.4162 30.0644 54.1037 30.5142C53.7912 30.964 53.6349 31.4801 53.6349 32.0625C53.6349 32.4366 53.706 32.7751 53.848 33.0781C53.9948 33.3764 54.2008 33.6439 54.4659 33.8807C54.7311 34.1127 55.0459 34.3163 55.4105 34.4915C55.7751 34.6667 56.1776 34.8205 56.6179 34.9531L58.2088 35.4219C58.7533 35.5876 59.2552 35.7794 59.7145 35.9972C60.1785 36.215 60.581 36.4754 60.9219 36.7784C61.2675 37.0767 61.535 37.4271 61.7244 37.8295C61.9186 38.232 62.0156 38.696 62.0156 39.2216C62.0156 39.9886 61.8168 40.6752 61.419 41.2812C61.026 41.8873 60.465 42.3655 59.7358 42.7159C59.0114 43.0616 58.1567 43.2344 57.1719 43.2344C56.2344 43.2344 55.4176 43.0758 54.7216 42.7585C54.0303 42.4413 53.4834 42.0009 53.081 41.4375C52.6785 40.8693 52.4512 40.2159 52.3991 39.4773H53.3082C53.3556 40.0786 53.5473 40.5994 53.8835 41.0398C54.2244 41.4754 54.6766 41.8116 55.2401 42.0483C55.8035 42.285 56.4474 42.4034 57.1719 42.4034C57.9531 42.4034 58.642 42.2708 59.2386 42.0057C59.8352 41.7358 60.3016 41.3617 60.6378 40.8835C60.974 40.4053 61.142 39.849 61.142 39.2145C61.142 38.7031 61.0213 38.2652 60.7798 37.9006C60.5384 37.536 60.1809 37.2211 59.7074 36.956C59.2386 36.6908 58.6563 36.4541 57.9602 36.2457L56.2628 35.7344C55.1264 35.3887 54.2576 34.9176 53.6562 34.321C53.0597 33.7244 52.7614 32.9811 52.7614 32.0909C52.7614 31.3428 52.9602 30.6799 53.358 30.1023C53.7557 29.5199 54.2955 29.063 54.9773 28.7315C55.6638 28.4001 56.438 28.2344 57.2997 28.2344C58.1662 28.2344 58.9309 28.4025 59.5938 28.7386C60.2566 29.0701 60.7822 29.527 61.1705 30.1094C61.5587 30.687 61.7741 31.3475 61.8168 32.0909H60.9432Z" fill="#F9FAFB"/>
</g>
</g>
</svg>
