<svg width="650" height="220" viewBox="0 0 650 220" fill="none" xmlns="http://www.w3.org/2000/svg">
<g id="Frame 1">
<path id="name" d="M42.52 49.48C39.448 49.48 36.616 48.968 34.024 47.944C31.464 46.888 29.464 45.448 28.024 43.624C27.768 43.304 27.64 42.968 27.64 42.616C27.64 42.168 27.88 41.736 28.36 41.32C28.616 41.128 28.888 41.032 29.176 41.032C29.752 41.032 30.264 41.304 30.712 41.848C32.024 43.288 33.672 44.408 35.656 45.208C37.672 45.976 39.96 46.36 42.52 46.36C45.336 46.36 47.512 45.848 49.048 44.824C50.584 43.768 51.352 42.28 51.352 40.36C51.352 38.696 50.6 37.352 49.096 36.328C47.624 35.304 45.112 34.392 41.56 33.592C36.92 32.568 33.576 31.288 31.528 29.752C29.512 28.184 28.504 26.12 28.504 23.56C28.504 20.904 29.624 18.808 31.864 17.272C34.136 15.704 37.192 14.92 41.032 14.92C43.944 14.92 46.568 15.432 48.904 16.456C51.272 17.48 52.952 18.856 53.944 20.584C54.136 20.904 54.232 21.208 54.232 21.496C54.232 22.008 53.96 22.456 53.416 22.84C53.192 22.968 52.936 23.032 52.648 23.032C51.944 23.032 51.4 22.76 51.016 22.216C50.088 20.872 48.776 19.848 47.08 19.144C45.384 18.408 43.368 18.04 41.032 18.04C35.112 18.04 32.152 19.88 32.152 23.56C32.152 24.68 32.456 25.624 33.064 26.392C33.672 27.128 34.648 27.8 35.992 28.408C37.368 28.984 39.272 29.56 41.704 30.136C46.44 31.256 49.848 32.616 51.928 34.216C54.008 35.784 55.048 37.832 55.048 40.36C55.048 43.176 53.912 45.4 51.64 47.032C49.4 48.664 46.36 49.48 42.52 49.48ZM67.7039 49C65.7519 49 64.2319 48.488 63.1439 47.464C62.0559 46.44 61.5119 45 61.5119 43.144V21.16C61.5119 19.368 62.0399 17.96 63.0959 16.936C64.1839 15.912 65.6879 15.4 67.6079 15.4H82.4879C83.7359 15.4 84.3599 15.912 84.3599 16.936C84.3599 17.384 84.1999 17.736 83.8799 17.992C83.5599 18.248 83.0959 18.376 82.4879 18.376H67.6559C66.8879 18.376 66.2639 18.632 65.7839 19.144C65.3359 19.656 65.1119 20.328 65.1119 21.16V30.328H78.8399C80.0879 30.328 80.7119 30.84 80.7119 31.864C80.7119 32.344 80.5359 32.712 80.1839 32.968C79.8639 33.224 79.4159 33.352 78.8399 33.352H65.1119V43.24C65.1119 44.072 65.3359 44.744 65.7839 45.256C66.2639 45.768 66.8879 46.024 67.6559 46.024H83.5439C84.7919 46.024 85.4159 46.52 85.4159 47.512C85.4159 47.992 85.2399 48.36 84.8879 48.616C84.5679 48.872 84.1199 49 83.5439 49H67.7039ZM101.055 49.48C99.6789 49.48 98.5749 49.032 97.7429 48.136C96.9109 47.24 96.3189 45.848 95.9669 43.96L90.7349 17.032C90.6709 16.712 90.6389 16.488 90.6389 16.36C90.6389 15.4 91.1829 14.92 92.2709 14.92C92.9429 14.92 93.4229 15.064 93.7109 15.352C93.9989 15.64 94.1909 16.072 94.2869 16.648L99.3749 44.056C99.5349 44.952 99.7429 45.576 99.9989 45.928C100.255 46.248 100.623 46.408 101.103 46.408C101.615 46.408 101.999 46.232 102.255 45.88C102.511 45.496 102.703 44.904 102.831 44.104L106.623 19.384C106.847 17.912 107.311 16.808 108.015 16.072C108.751 15.304 109.679 14.92 110.799 14.92C113.103 14.92 114.479 16.408 114.927 19.384L118.719 44.104C118.847 44.936 119.039 45.528 119.295 45.88C119.551 46.232 119.935 46.408 120.447 46.408C120.895 46.408 121.247 46.232 121.503 45.88C121.791 45.528 122.015 44.92 122.175 44.056L127.263 16.648C127.359 16.04 127.551 15.608 127.839 15.352C128.159 15.064 128.639 14.92 129.279 14.92C130.367 14.92 130.911 15.4 130.911 16.36C130.911 16.488 130.879 16.712 130.815 17.032L125.583 43.96C125.231 45.752 124.655 47.128 123.855 48.088C123.087 49.016 121.967 49.48 120.495 49.48C119.119 49.48 118.031 49.032 117.231 48.136C116.463 47.24 115.935 45.864 115.647 44.008L111.903 19.768C111.807 19.128 111.663 18.68 111.471 18.424C111.311 18.136 111.087 17.992 110.799 17.992C110.479 17.992 110.223 18.136 110.031 18.424C109.871 18.68 109.743 19.128 109.647 19.768L105.903 44.008C105.615 45.864 105.071 47.24 104.271 48.136C103.503 49.032 102.431 49.48 101.055 49.48ZM143.548 49C141.596 49 140.076 48.488 138.988 47.464C137.9 46.44 137.356 45 137.356 43.144V21.16C137.356 19.368 137.884 17.96 138.94 16.936C140.028 15.912 141.532 15.4 143.452 15.4H158.332C159.58 15.4 160.204 15.912 160.204 16.936C160.204 17.384 160.044 17.736 159.724 17.992C159.404 18.248 158.94 18.376 158.332 18.376H143.5C142.732 18.376 142.108 18.632 141.628 19.144C141.18 19.656 140.956 20.328 140.956 21.16V30.328H154.684C155.932 30.328 156.556 30.84 156.556 31.864C156.556 32.344 156.38 32.712 156.028 32.968C155.708 33.224 155.26 33.352 154.684 33.352H140.956V43.24C140.956 44.072 141.18 44.744 141.628 45.256C142.108 45.768 142.732 46.024 143.5 46.024H159.388C160.636 46.024 161.26 46.52 161.26 47.512C161.26 47.992 161.084 48.36 160.732 48.616C160.412 48.872 159.964 49 159.388 49H143.548ZM167.539 21.4C167.539 19.576 168.067 18.12 169.123 17.032C170.211 15.944 171.779 15.4 173.827 15.4H182.803C191.507 15.4 195.859 19.016 195.859 26.248C195.859 29.736 194.803 32.376 192.691 34.168C190.579 35.96 187.395 36.856 183.139 36.856L192.451 46.504C192.739 46.792 192.883 47.16 192.883 47.608C192.883 48.184 192.643 48.648 192.163 49C191.779 49.288 191.379 49.432 190.963 49.432C190.323 49.432 189.715 49.112 189.139 48.472L178.099 36.856H171.619V47.416C171.619 48.056 171.427 48.568 171.043 48.952C170.691 49.304 170.195 49.48 169.555 49.48C168.915 49.48 168.419 49.304 168.067 48.952C167.715 48.568 167.539 48.056 167.539 47.416V21.4ZM183.043 33.544C185.987 33.544 188.163 33 189.571 31.912C191.011 30.792 191.731 28.904 191.731 26.248C191.731 23.56 191.011 21.64 189.571 20.488C188.131 19.304 185.955 18.712 183.043 18.712H174.067C173.331 18.712 172.739 18.952 172.291 19.432C171.843 19.912 171.619 20.568 171.619 21.4V33.544H183.043ZM227.241 14.92C227.785 14.92 228.217 15.096 228.537 15.448C228.857 15.768 229.017 16.232 229.017 16.84V22.84C229.017 25.56 228.505 28.024 227.481 30.232C226.489 32.408 225.065 34.168 223.209 35.512C221.353 36.856 219.225 37.672 216.825 37.96V47.56C216.825 48.168 216.665 48.648 216.345 49C216.025 49.32 215.577 49.48 215.001 49.48C214.457 49.48 214.025 49.32 213.705 49C213.385 48.648 213.225 48.168 213.225 47.56V37.96C210.729 37.704 208.553 36.92 206.697 35.608C204.873 34.296 203.465 32.552 202.473 30.376C201.481 28.2 200.985 25.688 200.985 22.84V16.84C200.985 16.232 201.145 15.768 201.465 15.448C201.785 15.096 202.217 14.92 202.761 14.92C203.337 14.92 203.785 15.096 204.105 15.448C204.425 15.768 204.585 16.232 204.585 16.84V22.984C204.585 26.76 205.497 29.704 207.321 31.816C209.177 33.928 211.737 34.984 215.001 34.984C218.233 34.984 220.777 33.928 222.633 31.816C224.489 29.672 225.417 26.728 225.417 22.984V16.84C225.417 16.232 225.577 15.768 225.897 15.448C226.249 15.096 226.697 14.92 227.241 14.92ZM237.047 49.48C236.503 49.48 236.071 49.32 235.751 49C235.431 48.648 235.271 48.168 235.271 47.56V27.976C235.271 25.32 235.831 23.016 236.951 21.064C238.103 19.08 239.735 17.56 241.847 16.504C243.959 15.448 246.439 14.92 249.287 14.92C252.135 14.92 254.599 15.448 256.679 16.504C258.791 17.56 260.407 19.08 261.527 21.064C262.679 23.016 263.255 25.32 263.255 27.976V47.56C263.255 48.168 263.095 48.648 262.775 49C262.487 49.32 262.055 49.48 261.479 49.48C260.935 49.48 260.487 49.32 260.135 49C259.815 48.648 259.655 48.168 259.655 47.56V27.832C259.655 24.728 258.743 22.312 256.919 20.584C255.095 18.856 252.551 17.992 249.287 17.992C246.087 17.992 243.543 18.872 241.655 20.632C239.799 22.392 238.871 24.792 238.871 27.832V47.56C238.871 48.168 238.711 48.648 238.391 49C238.071 49.32 237.623 49.48 237.047 49.48ZM308.232 49.432C307.368 49.432 306.792 48.952 306.504 47.992C305.48 44.152 303.928 40.936 301.848 38.344C299.768 35.72 296.888 33.352 293.208 31.24L287.16 36.184V47.56C287.16 48.168 287 48.648 286.68 49C286.36 49.32 285.912 49.48 285.336 49.48C284.792 49.48 284.36 49.32 284.04 49C283.72 48.648 283.56 48.168 283.56 47.56V16.84C283.56 16.232 283.72 15.768 284.04 15.448C284.36 15.096 284.792 14.92 285.336 14.92C285.912 14.92 286.36 15.096 286.68 15.448C287 15.768 287.16 16.232 287.16 16.84V32.056L306.312 15.544C306.664 15.256 307.016 15.112 307.368 15.112C307.816 15.112 308.216 15.288 308.568 15.64C308.888 15.96 309.048 16.344 309.048 16.792C309.048 17.208 308.856 17.592 308.472 17.944L295.656 29.128C299.816 31.592 303.048 34.312 305.352 37.288C307.688 40.264 309.176 43.64 309.816 47.416L309.864 47.8C309.864 48.312 309.704 48.712 309.384 49C309.096 49.288 308.712 49.432 308.232 49.432ZM329.91 49.48C327.062 49.48 324.582 48.92 322.47 47.8C320.39 46.68 318.79 45.064 317.67 42.952C316.55 40.84 315.99 38.328 315.99 35.416V16.84C315.99 16.232 316.15 15.768 316.47 15.448C316.79 15.096 317.222 14.92 317.766 14.92C318.342 14.92 318.79 15.096 319.11 15.448C319.43 15.768 319.59 16.232 319.59 16.84V35.56C319.59 39.016 320.502 41.688 322.326 43.576C324.15 45.464 326.71 46.408 330.006 46.408C333.334 46.408 335.926 45.464 337.781 43.576C339.67 41.656 340.614 38.984 340.614 35.56V16.84C340.614 16.232 340.774 15.768 341.094 15.448C341.446 15.096 341.894 14.92 342.438 14.92C343.014 14.92 343.446 15.096 343.734 15.448C344.054 15.768 344.214 16.232 344.214 16.84V35.416C344.214 38.232 343.638 40.712 342.486 42.856C341.334 44.968 339.67 46.6 337.494 47.752C335.35 48.904 332.822 49.48 329.91 49.48ZM365.348 49.48C362.276 49.48 359.444 48.968 356.852 47.944C354.292 46.888 352.292 45.448 350.852 43.624C350.596 43.304 350.468 42.968 350.468 42.616C350.468 42.168 350.708 41.736 351.188 41.32C351.444 41.128 351.716 41.032 352.004 41.032C352.58 41.032 353.092 41.304 353.54 41.848C354.852 43.288 356.5 44.408 358.484 45.208C360.5 45.976 362.788 46.36 365.348 46.36C368.164 46.36 370.34 45.848 371.876 44.824C373.412 43.768 374.18 42.28 374.18 40.36C374.18 38.696 373.428 37.352 371.924 36.328C370.452 35.304 367.94 34.392 364.388 33.592C359.748 32.568 356.404 31.288 354.356 29.752C352.34 28.184 351.332 26.12 351.332 23.56C351.332 20.904 352.452 18.808 354.692 17.272C356.964 15.704 360.02 14.92 363.86 14.92C366.772 14.92 369.396 15.432 371.732 16.456C374.1 17.48 375.78 18.856 376.772 20.584C376.964 20.904 377.06 21.208 377.06 21.496C377.06 22.008 376.788 22.456 376.244 22.84C376.02 22.968 375.764 23.032 375.476 23.032C374.772 23.032 374.228 22.76 373.844 22.216C372.916 20.872 371.604 19.848 369.908 19.144C368.212 18.408 366.196 18.04 363.86 18.04C357.94 18.04 354.98 19.88 354.98 23.56C354.98 24.68 355.284 25.624 355.892 26.392C356.5 27.128 357.476 27.8 358.82 28.408C360.196 28.984 362.1 29.56 364.532 30.136C369.268 31.256 372.676 32.616 374.756 34.216C376.836 35.784 377.876 37.832 377.876 40.36C377.876 43.176 376.74 45.4 374.468 47.032C372.228 48.664 369.188 49.48 365.348 49.48ZM396.033 49.48C395.457 49.48 395.009 49.32 394.689 49C394.401 48.648 394.257 48.168 394.257 47.56V18.376H383.265C382.689 18.376 382.225 18.264 381.873 18.04C381.553 17.784 381.393 17.416 381.393 16.936C381.393 15.912 382.017 15.4 383.265 15.4H408.897C410.145 15.4 410.769 15.912 410.769 16.936C410.769 17.384 410.609 17.736 410.289 17.992C409.969 18.248 409.505 18.376 408.897 18.376H397.905V47.56C397.905 48.168 397.729 48.648 397.377 49C397.057 49.32 396.609 49.48 396.033 49.48ZM429.383 49.48C426.151 49.48 423.239 48.776 420.647 47.368C418.055 45.928 416.007 43.896 414.503 41.272C413.031 38.648 412.295 35.624 412.295 32.2C412.295 28.744 413.031 25.72 414.503 23.128C416.007 20.504 418.055 18.488 420.647 17.08C423.239 15.64 426.151 14.92 429.383 14.92C432.615 14.92 435.527 15.64 438.119 17.08C440.711 18.488 442.743 20.504 444.215 23.128C445.719 25.72 446.471 28.744 446.471 32.2C446.471 35.624 445.719 38.648 444.215 41.272C442.743 43.896 440.711 45.928 438.119 47.368C435.527 48.776 432.615 49.48 429.383 49.48ZM429.383 46.408C431.975 46.408 434.279 45.848 436.295 44.728C438.343 43.608 439.943 41.992 441.095 39.88C442.279 37.736 442.871 35.176 442.871 32.2C442.871 29.192 442.263 26.616 441.047 24.472C439.863 22.328 438.231 20.712 436.151 19.624C434.103 18.536 431.815 17.992 429.287 17.992C426.727 17.992 424.423 18.552 422.375 19.672C420.359 20.792 418.775 22.424 417.623 24.568C416.471 26.712 415.895 29.256 415.895 32.2C415.895 35.176 416.471 37.736 417.623 39.88C418.807 41.992 420.407 43.608 422.423 44.728C424.471 45.848 426.791 46.408 429.383 46.408ZM466.598 49.48C463.526 49.48 460.694 48.968 458.102 47.944C455.542 46.888 453.542 45.448 452.102 43.624C451.846 43.304 451.718 42.968 451.718 42.616C451.718 42.168 451.958 41.736 452.438 41.32C452.694 41.128 452.966 41.032 453.254 41.032C453.83 41.032 454.342 41.304 454.79 41.848C456.102 43.288 457.75 44.408 459.734 45.208C461.75 45.976 464.038 46.36 466.598 46.36C469.414 46.36 471.59 45.848 473.126 44.824C474.662 43.768 475.43 42.28 475.43 40.36C475.43 38.696 474.678 37.352 473.174 36.328C471.702 35.304 469.19 34.392 465.638 33.592C460.998 32.568 457.654 31.288 455.606 29.752C453.59 28.184 452.582 26.12 452.582 23.56C452.582 20.904 453.702 18.808 455.942 17.272C458.214 15.704 461.27 14.92 465.11 14.92C468.022 14.92 470.646 15.432 472.982 16.456C475.35 17.48 477.03 18.856 478.022 20.584C478.214 20.904 478.31 21.208 478.31 21.496C478.31 22.008 478.038 22.456 477.494 22.84C477.27 22.968 477.014 23.032 476.726 23.032C476.022 23.032 475.478 22.76 475.094 22.216C474.166 20.872 472.854 19.848 471.158 19.144C469.462 18.408 467.446 18.04 465.11 18.04C459.19 18.04 456.23 19.88 456.23 23.56C456.23 24.68 456.534 25.624 457.142 26.392C457.75 27.128 458.726 27.8 460.07 28.408C461.446 28.984 463.35 29.56 465.782 30.136C470.518 31.256 473.926 32.616 476.006 34.216C478.086 35.784 479.126 37.832 479.126 40.36C479.126 43.176 477.99 45.4 475.718 47.032C473.478 48.664 470.438 49.48 466.598 49.48ZM488.854 49.48C488.31 49.48 487.878 49.32 487.558 49C487.238 48.648 487.078 48.168 487.078 47.56V16.84C487.078 16.232 487.238 15.768 487.558 15.448C487.878 15.096 488.31 14.92 488.854 14.92C489.43 14.92 489.878 15.096 490.198 15.448C490.518 15.8 490.678 16.264 490.678 16.84V47.56C490.678 48.136 490.518 48.6 490.198 48.952C489.878 49.304 489.43 49.48 488.854 49.48ZM524.56 49.432C523.696 49.432 523.12 48.952 522.832 47.992C521.808 44.152 520.256 40.936 518.176 38.344C516.096 35.72 513.216 33.352 509.536 31.24L503.488 36.184V47.56C503.488 48.168 503.328 48.648 503.008 49C502.688 49.32 502.24 49.48 501.664 49.48C501.12 49.48 500.688 49.32 500.368 49C500.048 48.648 499.888 48.168 499.888 47.56V16.84C499.888 16.232 500.048 15.768 500.368 15.448C500.688 15.096 501.12 14.92 501.664 14.92C502.24 14.92 502.688 15.096 503.008 15.448C503.328 15.768 503.488 16.232 503.488 16.84V32.056L522.64 15.544C522.992 15.256 523.344 15.112 523.696 15.112C524.144 15.112 524.544 15.288 524.896 15.64C525.216 15.96 525.376 16.344 525.376 16.792C525.376 17.208 525.184 17.592 524.8 17.944L511.984 29.128C516.144 31.592 519.376 34.312 521.68 37.288C524.016 40.264 525.504 43.64 526.144 47.416L526.192 47.8C526.192 48.312 526.032 48.712 525.712 49C525.424 49.288 525.04 49.432 524.56 49.432Z" fill="url(#paint0_linear_6_41)"/>
<path id="fullstack" d="M31.212 183.36C30.804 183.36 30.48 183.24 30.24 183C30 182.736 29.88 182.376 29.88 181.92V162.12C29.88 160.776 30.276 159.72 31.068 158.952C31.884 158.184 33.012 157.8 34.452 157.8H45.612C46.548 157.8 47.016 158.184 47.016 158.952C47.016 159.288 46.896 159.552 46.656 159.744C46.416 159.936 46.068 160.032 45.612 160.032H34.488C33.912 160.032 33.444 160.224 33.084 160.608C32.748 160.992 32.58 161.496 32.58 162.12V169.356H42.876C43.812 169.356 44.28 169.74 44.28 170.508C44.28 170.868 44.148 171.144 43.884 171.336C43.644 171.528 43.308 171.624 42.876 171.624H32.58V181.92C32.58 182.376 32.46 182.736 32.22 183C31.98 183.24 31.644 183.36 31.212 183.36ZM62.1118 183.36C59.9758 183.36 58.1158 182.94 56.5318 182.1C54.9718 181.26 53.7718 180.048 52.9318 178.464C52.0918 176.88 51.6718 174.996 51.6718 172.812V158.88C51.6718 158.424 51.7918 158.076 52.0318 157.836C52.2718 157.572 52.5958 157.44 53.0038 157.44C53.4358 157.44 53.7718 157.572 54.0118 157.836C54.2518 158.076 54.3718 158.424 54.3718 158.88V172.92C54.3718 175.512 55.0558 177.516 56.4238 178.932C57.7918 180.348 59.7118 181.056 62.1838 181.056C64.6798 181.056 66.6238 180.348 68.0158 178.932C69.4318 177.492 70.1398 175.488 70.1398 172.92V158.88C70.1398 158.424 70.2598 158.076 70.4998 157.836C70.7638 157.572 71.0998 157.44 71.5078 157.44C71.9398 157.44 72.2638 157.572 72.4798 157.836C72.7198 158.076 72.8398 158.424 72.8398 158.88V172.812C72.8398 174.924 72.4078 176.784 71.5438 178.392C70.6798 179.976 69.4318 181.2 67.7998 182.064C66.1918 182.928 64.2958 183.36 62.1118 183.36ZM83.1468 183C81.6828 183 80.5428 182.616 79.7268 181.848C78.9108 181.056 78.5028 179.976 78.5028 178.608V158.88C78.5028 158.424 78.6228 158.076 78.8628 157.836C79.1028 157.572 79.4268 157.44 79.8348 157.44C80.2668 157.44 80.6028 157.572 80.8428 157.836C81.0828 158.076 81.2028 158.424 81.2028 158.88V178.68C81.2028 179.304 81.3708 179.808 81.7068 180.192C82.0668 180.576 82.5348 180.768 83.1108 180.768H95.0988C96.0348 180.768 96.5028 181.14 96.5028 181.884C96.5028 182.244 96.3828 182.52 96.1428 182.712C95.9028 182.904 95.5548 183 95.0988 183H83.1468ZM105.717 183C104.253 183 103.113 182.616 102.297 181.848C101.481 181.056 101.073 179.976 101.073 178.608V158.88C101.073 158.424 101.193 158.076 101.433 157.836C101.673 157.572 101.997 157.44 102.405 157.44C102.837 157.44 103.173 157.572 103.413 157.836C103.653 158.076 103.773 158.424 103.773 158.88V178.68C103.773 179.304 103.941 179.808 104.277 180.192C104.637 180.576 105.105 180.768 105.681 180.768H117.669C118.605 180.768 119.073 181.14 119.073 181.884C119.073 182.244 118.953 182.52 118.713 182.712C118.473 182.904 118.125 183 117.669 183H105.717ZM143.464 183.36C141.16 183.36 139.036 182.976 137.092 182.208C135.172 181.416 133.672 180.336 132.592 178.968C132.4 178.728 132.304 178.476 132.304 178.212C132.304 177.876 132.484 177.552 132.844 177.24C133.036 177.096 133.24 177.024 133.456 177.024C133.888 177.024 134.272 177.228 134.608 177.636C135.592 178.716 136.828 179.556 138.316 180.156C139.828 180.732 141.544 181.02 143.464 181.02C145.576 181.02 147.208 180.636 148.36 179.868C149.512 179.076 150.088 177.96 150.088 176.52C150.088 175.272 149.524 174.264 148.396 173.496C147.292 172.728 145.408 172.044 142.744 171.444C139.264 170.676 136.756 169.716 135.22 168.564C133.708 167.388 132.952 165.84 132.952 163.92C132.952 161.928 133.792 160.356 135.472 159.204C137.176 158.028 139.468 157.44 142.348 157.44C144.532 157.44 146.5 157.824 148.252 158.592C150.028 159.36 151.288 160.392 152.032 161.688C152.176 161.928 152.248 162.156 152.248 162.372C152.248 162.756 152.044 163.092 151.636 163.38C151.468 163.476 151.276 163.524 151.06 163.524C150.532 163.524 150.124 163.32 149.836 162.912C149.14 161.904 148.156 161.136 146.884 160.608C145.612 160.056 144.1 159.78 142.348 159.78C137.908 159.78 135.688 161.16 135.688 163.92C135.688 164.76 135.916 165.468 136.372 166.044C136.828 166.596 137.56 167.1 138.568 167.556C139.6 167.988 141.028 168.42 142.852 168.852C146.404 169.692 148.96 170.712 150.52 171.912C152.08 173.088 152.86 174.624 152.86 176.52C152.86 178.632 152.008 180.3 150.304 181.524C148.624 182.748 146.344 183.36 143.464 183.36ZM166.478 183.36C166.046 183.36 165.71 183.24 165.47 183C165.254 182.736 165.146 182.376 165.146 181.92V160.032H156.902C156.47 160.032 156.122 159.948 155.858 159.78C155.618 159.588 155.498 159.312 155.498 158.952C155.498 158.184 155.966 157.8 156.902 157.8H176.126C177.062 157.8 177.53 158.184 177.53 158.952C177.53 159.288 177.41 159.552 177.17 159.744C176.93 159.936 176.582 160.032 176.126 160.032H167.882V181.92C167.882 182.376 167.75 182.736 167.486 183C167.246 183.24 166.91 183.36 166.478 183.36ZM181.149 183.36C180.741 183.36 180.417 183.24 180.177 183C179.937 182.736 179.817 182.376 179.817 181.92V167.844C179.817 164.58 180.729 162.036 182.553 160.212C184.401 158.364 186.957 157.44 190.221 157.44C193.461 157.44 196.005 158.364 197.853 160.212C199.701 162.06 200.625 164.604 200.625 167.844V181.92C200.625 182.376 200.505 182.736 200.265 183C200.025 183.24 199.689 183.36 199.257 183.36C198.849 183.36 198.513 183.24 198.249 183C198.009 182.736 197.889 182.376 197.889 181.92V173.82H182.517V181.92C182.517 182.376 182.397 182.736 182.157 183C181.917 183.24 181.581 183.36 181.149 183.36ZM197.889 171.588V167.736C197.889 165.168 197.229 163.2 195.909 161.832C194.589 160.44 192.693 159.744 190.221 159.744C187.725 159.744 185.817 160.428 184.497 161.796C183.177 163.164 182.517 165.144 182.517 167.736V171.588H197.889ZM217.781 183.36C215.285 183.36 213.089 182.832 211.193 181.776C209.321 180.696 207.869 179.184 206.837 177.24C205.805 175.272 205.289 173.004 205.289 170.436C205.289 167.844 205.805 165.564 206.837 163.596C207.869 161.628 209.321 160.116 211.193 159.06C213.089 157.98 215.273 157.44 217.745 157.44C219.809 157.44 221.705 157.788 223.433 158.484C225.185 159.18 226.553 160.152 227.537 161.4C227.729 161.616 227.825 161.88 227.825 162.192C227.825 162.576 227.657 162.888 227.321 163.128C227.105 163.272 226.865 163.344 226.601 163.344C226.145 163.344 225.761 163.164 225.449 162.804C224.681 161.82 223.637 161.064 222.317 160.536C220.997 160.008 219.473 159.744 217.745 159.744C215.753 159.744 214.025 160.176 212.561 161.04C211.097 161.904 209.969 163.14 209.177 164.748C208.409 166.356 208.025 168.252 208.025 170.436C208.025 172.596 208.409 174.48 209.177 176.088C209.969 177.672 211.097 178.896 212.561 179.76C214.049 180.624 215.789 181.056 217.781 181.056C219.629 181.056 221.237 180.792 222.605 180.264C223.997 179.712 225.089 178.956 225.881 177.996C226.241 177.612 226.625 177.42 227.033 177.42C227.321 177.42 227.561 177.504 227.753 177.672C228.089 177.96 228.257 178.272 228.257 178.608C228.257 178.896 228.149 179.172 227.933 179.436C226.949 180.636 225.545 181.596 223.721 182.316C221.921 183.012 219.941 183.36 217.781 183.36ZM251.623 183.324C250.975 183.324 250.543 182.964 250.327 182.244C249.559 179.364 248.395 176.952 246.835 175.008C245.275 173.04 243.115 171.264 240.355 169.68L235.819 173.388V181.92C235.819 182.376 235.699 182.736 235.459 183C235.219 183.24 234.883 183.36 234.451 183.36C234.043 183.36 233.719 183.24 233.479 183C233.239 182.736 233.119 182.376 233.119 181.92V158.88C233.119 158.424 233.239 158.076 233.479 157.836C233.719 157.572 234.043 157.44 234.451 157.44C234.883 157.44 235.219 157.572 235.459 157.836C235.699 158.076 235.819 158.424 235.819 158.88V170.292L250.183 157.908C250.447 157.692 250.711 157.584 250.975 157.584C251.311 157.584 251.611 157.716 251.875 157.98C252.115 158.22 252.235 158.508 252.235 158.844C252.235 159.156 252.091 159.444 251.803 159.708L242.191 168.096C245.311 169.944 247.735 171.984 249.463 174.216C251.215 176.448 252.331 178.98 252.811 181.812L252.847 182.1C252.847 182.484 252.727 182.784 252.487 183C252.271 183.216 251.983 183.324 251.623 183.324ZM271.934 183C270.47 183 269.33 182.616 268.514 181.848C267.698 181.056 267.29 179.976 267.29 178.608V162.12C267.29 160.776 267.686 159.72 268.478 158.952C269.294 158.184 270.422 157.8 271.862 157.8H276.902C279.398 157.8 281.57 158.328 283.418 159.384C285.29 160.416 286.73 161.88 287.738 163.776C288.746 165.672 289.25 167.892 289.25 170.436C289.25 172.98 288.746 175.2 287.738 177.096C286.73 178.968 285.29 180.42 283.418 181.452C281.57 182.484 279.398 183 276.902 183H271.934ZM276.542 180.768C279.71 180.768 282.158 179.868 283.886 178.068C285.638 176.268 286.514 173.724 286.514 170.436C286.514 167.148 285.638 164.592 283.886 162.768C282.134 160.944 279.686 160.032 276.542 160.032H271.898C271.322 160.032 270.854 160.224 270.494 160.608C270.158 160.992 269.99 161.496 269.99 162.12V178.68C269.99 179.304 270.158 179.808 270.494 180.192C270.854 180.576 271.322 180.768 271.898 180.768H276.542ZM298.794 183C297.33 183 296.19 182.616 295.374 181.848C294.558 181.08 294.15 180 294.15 178.608V162.12C294.15 160.776 294.546 159.72 295.338 158.952C296.154 158.184 297.282 157.8 298.722 157.8H309.882C310.818 157.8 311.286 158.184 311.286 158.952C311.286 159.288 311.166 159.552 310.926 159.744C310.686 159.936 310.338 160.032 309.882 160.032H298.758C298.182 160.032 297.714 160.224 297.354 160.608C297.018 160.992 296.85 161.496 296.85 162.12V168.996H307.146C308.082 168.996 308.55 169.38 308.55 170.148C308.55 170.508 308.418 170.784 308.154 170.976C307.914 171.168 307.578 171.264 307.146 171.264H296.85V178.68C296.85 179.304 297.018 179.808 297.354 180.192C297.714 180.576 298.182 180.768 298.758 180.768H310.674C311.61 180.768 312.078 181.14 312.078 181.884C312.078 182.244 311.946 182.52 311.682 182.712C311.442 182.904 311.106 183 310.674 183H298.794ZM326.595 183.36C325.131 183.36 323.967 182.796 323.103 181.668C322.239 180.516 321.423 178.668 320.655 176.124L315.507 159.06C315.435 158.796 315.399 158.58 315.399 158.412C315.399 157.764 315.819 157.44 316.659 157.44C317.091 157.44 317.415 157.536 317.631 157.728C317.847 157.896 318.027 158.232 318.171 158.736L323.283 175.872C323.859 177.792 324.387 179.148 324.867 179.94C325.371 180.708 325.947 181.092 326.595 181.092C327.219 181.092 327.783 180.696 328.287 179.904C328.791 179.112 329.331 177.768 329.907 175.872L335.019 158.7C335.163 158.22 335.343 157.896 335.559 157.728C335.775 157.536 336.099 157.44 336.531 157.44C337.371 157.44 337.791 157.764 337.791 158.412C337.791 158.58 337.755 158.796 337.683 159.06L332.499 176.124C331.683 178.788 330.831 180.66 329.943 181.74C329.079 182.82 327.963 183.36 326.595 183.36ZM347.309 183C345.845 183 344.705 182.616 343.889 181.848C343.073 181.08 342.665 180 342.665 178.608V162.12C342.665 160.776 343.061 159.72 343.853 158.952C344.669 158.184 345.797 157.8 347.237 157.8H358.397C359.333 157.8 359.801 158.184 359.801 158.952C359.801 159.288 359.681 159.552 359.441 159.744C359.201 159.936 358.853 160.032 358.397 160.032H347.273C346.697 160.032 346.229 160.224 345.869 160.608C345.533 160.992 345.365 161.496 345.365 162.12V168.996H355.661C356.597 168.996 357.065 169.38 357.065 170.148C357.065 170.508 356.933 170.784 356.669 170.976C356.429 171.168 356.093 171.264 355.661 171.264H345.365V178.68C345.365 179.304 345.533 179.808 345.869 180.192C346.229 180.576 346.697 180.768 347.273 180.768H359.189C360.125 180.768 360.593 181.14 360.593 181.884C360.593 182.244 360.461 182.52 360.197 182.712C359.957 182.904 359.621 183 359.189 183H347.309ZM370.162 183C368.698 183 367.558 182.616 366.742 181.848C365.926 181.056 365.518 179.976 365.518 178.608V158.88C365.518 158.424 365.638 158.076 365.878 157.836C366.118 157.572 366.442 157.44 366.85 157.44C367.282 157.44 367.618 157.572 367.858 157.836C368.098 158.076 368.218 158.424 368.218 158.88V178.68C368.218 179.304 368.386 179.808 368.722 180.192C369.082 180.576 369.55 180.768 370.126 180.768H382.114C383.05 180.768 383.518 181.14 383.518 181.884C383.518 182.244 383.398 182.52 383.158 182.712C382.918 182.904 382.57 183 382.114 183H370.162ZM397.19 183.36C394.766 183.36 392.582 182.832 390.638 181.776C388.694 180.696 387.158 179.172 386.03 177.204C384.926 175.236 384.374 172.968 384.374 170.4C384.374 167.808 384.926 165.54 386.03 163.596C387.158 161.628 388.694 160.116 390.638 159.06C392.582 157.98 394.766 157.44 397.19 157.44C399.614 157.44 401.798 157.98 403.742 159.06C405.686 160.116 407.21 161.628 408.314 163.596C409.442 165.54 410.006 167.808 410.006 170.4C410.006 172.968 409.442 175.236 408.314 177.204C407.21 179.172 405.686 180.696 403.742 181.776C401.798 182.832 399.614 183.36 397.19 183.36ZM397.19 181.056C399.134 181.056 400.862 180.636 402.374 179.796C403.91 178.956 405.11 177.744 405.974 176.16C406.862 174.552 407.306 172.632 407.306 170.4C407.306 168.144 406.85 166.212 405.938 164.604C405.05 162.996 403.826 161.784 402.266 160.968C400.73 160.152 399.014 159.744 397.118 159.744C395.198 159.744 393.47 160.164 391.934 161.004C390.422 161.844 389.234 163.068 388.37 164.676C387.506 166.284 387.074 168.192 387.074 170.4C387.074 172.632 387.506 174.552 388.37 176.16C389.258 177.744 390.458 178.956 391.97 179.796C393.506 180.636 395.246 181.056 397.19 181.056ZM416.173 183.36C415.765 183.36 415.441 183.24 415.201 183C414.961 182.736 414.841 182.376 414.841 181.92V162.12C414.841 160.776 415.237 159.72 416.029 158.952C416.845 158.184 417.973 157.8 419.413 157.8H425.533C432.373 157.8 435.793 160.668 435.793 166.404C435.793 169.044 434.917 171.084 433.165 172.524C431.437 173.94 428.941 174.648 425.677 174.648H417.541V181.92C417.541 182.376 417.421 182.736 417.181 183C416.941 183.24 416.605 183.36 416.173 183.36ZM425.677 172.38C428.005 172.38 429.805 171.924 431.077 171.012C432.373 170.1 433.021 168.564 433.021 166.404C433.021 164.148 432.397 162.528 431.149 161.544C429.901 160.536 428.089 160.032 425.713 160.032H419.449C418.873 160.032 418.405 160.224 418.045 160.608C417.709 160.992 417.541 161.496 417.541 162.12V172.38H425.677ZM445.29 183C443.826 183 442.686 182.616 441.87 181.848C441.054 181.08 440.646 180 440.646 178.608V162.12C440.646 160.776 441.042 159.72 441.834 158.952C442.65 158.184 443.778 157.8 445.218 157.8H456.378C457.314 157.8 457.782 158.184 457.782 158.952C457.782 159.288 457.662 159.552 457.422 159.744C457.182 159.936 456.834 160.032 456.378 160.032H445.254C444.678 160.032 444.21 160.224 443.85 160.608C443.514 160.992 443.346 161.496 443.346 162.12V168.996H453.642C454.578 168.996 455.046 169.38 455.046 170.148C455.046 170.508 454.914 170.784 454.65 170.976C454.41 171.168 454.074 171.264 453.642 171.264H443.346V178.68C443.346 179.304 443.514 179.808 443.85 180.192C444.21 180.576 444.678 180.768 445.254 180.768H457.17C458.106 180.768 458.574 181.14 458.574 181.884C458.574 182.244 458.442 182.52 458.178 182.712C457.938 182.904 457.602 183 457.17 183H445.29ZM463.283 162.3C463.283 160.932 463.679 159.84 464.471 159.024C465.287 158.208 466.463 157.8 467.999 157.8H474.731C481.259 157.8 484.523 160.512 484.523 165.936C484.523 168.552 483.731 170.532 482.147 171.876C480.563 173.22 478.175 173.892 474.983 173.892L481.967 181.128C482.183 181.344 482.291 181.62 482.291 181.956C482.291 182.388 482.111 182.736 481.751 183C481.463 183.216 481.163 183.324 480.851 183.324C480.371 183.324 479.915 183.084 479.483 182.604L471.203 173.892H466.343V181.812C466.343 182.292 466.199 182.676 465.911 182.964C465.647 183.228 465.275 183.36 464.795 183.36C464.315 183.36 463.943 183.228 463.679 182.964C463.415 182.676 463.283 182.292 463.283 181.812V162.3ZM474.911 171.408C477.119 171.408 478.751 171 479.807 170.184C480.887 169.344 481.427 167.928 481.427 165.936C481.427 163.92 480.887 162.48 479.807 161.616C478.727 160.728 477.095 160.284 474.911 160.284H468.179C467.627 160.284 467.183 160.464 466.847 160.824C466.511 161.184 466.343 161.676 466.343 162.3V171.408H474.911Z" fill="url(#paint1_linear_6_41)"/>
<path id="implementation" d="M30.328 132.36C29.92 132.36 29.596 132.24 29.356 132C29.116 131.736 28.996 131.376 28.996 130.92V107.88C28.996 107.424 29.116 107.076 29.356 106.836C29.596 106.572 29.92 106.44 30.328 106.44C30.76 106.44 31.096 106.572 31.336 106.836C31.576 107.1 31.696 107.448 31.696 107.88V130.92C31.696 131.352 31.576 131.7 31.336 131.964C31.096 132.228 30.76 132.36 30.328 132.36ZM48.2515 132.36C47.8195 132.36 47.4835 132.24 47.2435 132C47.0275 131.736 46.9195 131.376 46.9195 130.92V109.032H38.6755C38.2435 109.032 37.8955 108.948 37.6315 108.78C37.3915 108.588 37.2715 108.312 37.2715 107.952C37.2715 107.184 37.7395 106.8 38.6755 106.8H57.8995C58.8355 106.8 59.3035 107.184 59.3035 107.952C59.3035 108.288 59.1835 108.552 58.9435 108.744C58.7035 108.936 58.3555 109.032 57.8995 109.032H49.6555V130.92C49.6555 131.376 49.5235 131.736 49.2595 132C49.0195 132.24 48.6835 132.36 48.2515 132.36ZM75.8202 132.36C75.4122 132.36 75.0882 132.24 74.8482 132C74.6082 131.736 74.4882 131.376 74.4882 130.92V107.88C74.4882 107.424 74.6082 107.076 74.8482 106.836C75.0882 106.572 75.4122 106.44 75.8202 106.44C76.2522 106.44 76.5882 106.572 76.8282 106.836C77.0682 107.1 77.1882 107.448 77.1882 107.88V130.92C77.1882 131.352 77.0682 131.7 76.8282 131.964C76.5882 132.228 76.2522 132.36 75.8202 132.36ZM85.2117 132.36C84.8037 132.36 84.4797 132.24 84.2397 132C83.9997 131.736 83.8797 131.376 83.8797 130.92V114.648C83.8797 112.104 84.5997 110.1 86.0397 108.636C87.4797 107.172 89.4597 106.44 91.9797 106.44C93.4437 106.44 94.7877 106.824 96.0117 107.592C97.2597 108.336 98.1957 109.332 98.8197 110.58C99.4437 109.308 100.356 108.3 101.556 107.556C102.78 106.812 104.148 106.44 105.66 106.44C108.18 106.44 110.16 107.172 111.6 108.636C113.04 110.076 113.76 112.08 113.76 114.648V130.92C113.76 131.376 113.628 131.736 113.364 132C113.124 132.24 112.8 132.36 112.392 132.36C111.96 132.36 111.624 132.24 111.384 132C111.168 131.736 111.06 131.376 111.06 130.92V114.648C111.06 112.752 110.628 111.3 109.764 110.292C108.924 109.284 107.532 108.78 105.588 108.78C103.884 108.78 102.552 109.308 101.592 110.364C100.632 111.396 100.152 112.824 100.152 114.648V130.92C100.152 131.376 100.032 131.736 99.7917 132C99.5517 132.24 99.2277 132.36 98.8197 132.36C98.4117 132.36 98.0877 132.24 97.8477 132C97.6317 131.736 97.5237 131.376 97.5237 130.92V114.648C97.5237 112.872 97.0197 111.456 96.0117 110.4C95.0037 109.32 93.6837 108.78 92.0517 108.78C90.1077 108.78 88.7037 109.284 87.8397 110.292C86.9997 111.3 86.5797 112.752 86.5797 114.648V130.92C86.5797 131.376 86.4597 131.736 86.2197 132C85.9797 132.24 85.6437 132.36 85.2117 132.36ZM120.689 132.36C120.281 132.36 119.957 132.24 119.717 132C119.477 131.736 119.357 131.376 119.357 130.92V111.12C119.357 109.776 119.753 108.72 120.545 107.952C121.361 107.184 122.489 106.8 123.929 106.8H130.049C136.889 106.8 140.309 109.668 140.309 115.404C140.309 118.044 139.433 120.084 137.681 121.524C135.953 122.94 133.457 123.648 130.193 123.648H122.057V130.92C122.057 131.376 121.937 131.736 121.697 132C121.457 132.24 121.121 132.36 120.689 132.36ZM130.193 121.38C132.521 121.38 134.321 120.924 135.593 120.012C136.889 119.1 137.537 117.564 137.537 115.404C137.537 113.148 136.913 111.528 135.665 110.544C134.417 109.536 132.605 109.032 130.229 109.032H123.965C123.389 109.032 122.921 109.224 122.561 109.608C122.225 109.992 122.057 110.496 122.057 111.12V121.38H130.193ZM149.877 132C148.413 132 147.273 131.616 146.457 130.848C145.641 130.056 145.233 128.976 145.233 127.608V107.88C145.233 107.424 145.353 107.076 145.593 106.836C145.833 106.572 146.157 106.44 146.565 106.44C146.997 106.44 147.333 106.572 147.573 106.836C147.813 107.076 147.933 107.424 147.933 107.88V127.68C147.933 128.304 148.101 128.808 148.437 129.192C148.797 129.576 149.265 129.768 149.841 129.768H161.829C162.765 129.768 163.233 130.14 163.233 130.884C163.233 131.244 163.113 131.52 162.873 131.712C162.633 131.904 162.285 132 161.829 132H149.877ZM172.376 132C170.912 132 169.772 131.616 168.956 130.848C168.14 130.08 167.732 129 167.732 127.608V111.12C167.732 109.776 168.128 108.72 168.92 107.952C169.736 107.184 170.864 106.8 172.304 106.8H183.464C184.4 106.8 184.868 107.184 184.868 107.952C184.868 108.288 184.748 108.552 184.508 108.744C184.268 108.936 183.92 109.032 183.464 109.032H172.34C171.764 109.032 171.296 109.224 170.936 109.608C170.6 109.992 170.432 110.496 170.432 111.12V117.996H180.728C181.664 117.996 182.132 118.38 182.132 119.148C182.132 119.508 182 119.784 181.736 119.976C181.496 120.168 181.16 120.264 180.728 120.264H170.432V127.68C170.432 128.304 170.6 128.808 170.936 129.192C171.296 129.576 171.764 129.768 172.34 129.768H184.256C185.192 129.768 185.66 130.14 185.66 130.884C185.66 131.244 185.528 131.52 185.264 131.712C185.024 131.904 184.688 132 184.256 132H172.376ZM191.665 132.36C191.257 132.36 190.933 132.24 190.693 132C190.453 131.736 190.333 131.376 190.333 130.92V114.648C190.333 112.104 191.053 110.1 192.493 108.636C193.933 107.172 195.913 106.44 198.433 106.44C199.897 106.44 201.241 106.824 202.465 107.592C203.713 108.336 204.649 109.332 205.273 110.58C205.897 109.308 206.809 108.3 208.009 107.556C209.233 106.812 210.601 106.44 212.113 106.44C214.633 106.44 216.613 107.172 218.053 108.636C219.493 110.076 220.213 112.08 220.213 114.648V130.92C220.213 131.376 220.081 131.736 219.817 132C219.577 132.24 219.253 132.36 218.845 132.36C218.413 132.36 218.077 132.24 217.837 132C217.621 131.736 217.513 131.376 217.513 130.92V114.648C217.513 112.752 217.081 111.3 216.217 110.292C215.377 109.284 213.985 108.78 212.041 108.78C210.337 108.78 209.005 109.308 208.045 110.364C207.085 111.396 206.605 112.824 206.605 114.648V130.92C206.605 131.376 206.485 131.736 206.245 132C206.005 132.24 205.681 132.36 205.273 132.36C204.865 132.36 204.541 132.24 204.301 132C204.085 131.736 203.977 131.376 203.977 130.92V114.648C203.977 112.872 203.473 111.456 202.465 110.4C201.457 109.32 200.137 108.78 198.505 108.78C196.561 108.78 195.157 109.284 194.293 110.292C193.453 111.3 193.033 112.752 193.033 114.648V130.92C193.033 131.376 192.913 131.736 192.673 132C192.433 132.24 192.097 132.36 191.665 132.36ZM230.454 132C228.99 132 227.85 131.616 227.034 130.848C226.218 130.08 225.81 129 225.81 127.608V111.12C225.81 109.776 226.206 108.72 226.998 107.952C227.814 107.184 228.942 106.8 230.382 106.8H241.542C242.478 106.8 242.946 107.184 242.946 107.952C242.946 108.288 242.826 108.552 242.586 108.744C242.346 108.936 241.998 109.032 241.542 109.032H230.418C229.842 109.032 229.374 109.224 229.014 109.608C228.678 109.992 228.51 110.496 228.51 111.12V117.996H238.806C239.742 117.996 240.21 118.38 240.21 119.148C240.21 119.508 240.078 119.784 239.814 119.976C239.574 120.168 239.238 120.264 238.806 120.264H228.51V127.68C228.51 128.304 228.678 128.808 229.014 129.192C229.374 129.576 229.842 129.768 230.418 129.768H242.334C243.27 129.768 243.738 130.14 243.738 130.884C243.738 131.244 243.606 131.52 243.342 131.712C243.102 131.904 242.766 132 242.334 132H230.454ZM249.707 132.36C249.299 132.36 248.975 132.24 248.735 132C248.495 131.736 248.375 131.376 248.375 130.92V116.232C248.375 114.24 248.795 112.512 249.635 111.048C250.499 109.56 251.723 108.42 253.307 107.628C254.891 106.836 256.751 106.44 258.887 106.44C261.023 106.44 262.871 106.836 264.431 107.628C266.015 108.42 267.227 109.56 268.067 111.048C268.931 112.512 269.363 114.24 269.363 116.232V130.92C269.363 131.376 269.243 131.736 269.003 132C268.787 132.24 268.463 132.36 268.031 132.36C267.623 132.36 267.287 132.24 267.023 132C266.783 131.736 266.663 131.376 266.663 130.92V116.124C266.663 113.796 265.979 111.984 264.611 110.688C263.243 109.392 261.335 108.744 258.887 108.744C256.487 108.744 254.579 109.404 253.163 110.724C251.771 112.044 251.075 113.844 251.075 116.124V130.92C251.075 131.376 250.955 131.736 250.715 132C250.475 132.24 250.139 132.36 249.707 132.36ZM282.99 132.36C282.558 132.36 282.222 132.24 281.982 132C281.766 131.736 281.658 131.376 281.658 130.92V109.032H273.414C272.982 109.032 272.634 108.948 272.37 108.78C272.13 108.588 272.01 108.312 272.01 107.952C272.01 107.184 272.478 106.8 273.414 106.8H292.638C293.574 106.8 294.042 107.184 294.042 107.952C294.042 108.288 293.922 108.552 293.682 108.744C293.442 108.936 293.094 109.032 292.638 109.032H284.394V130.92C284.394 131.376 284.262 131.736 283.998 132C283.758 132.24 283.422 132.36 282.99 132.36ZM297.661 132.36C297.253 132.36 296.929 132.24 296.689 132C296.449 131.736 296.329 131.376 296.329 130.92V116.844C296.329 113.58 297.241 111.036 299.065 109.212C300.913 107.364 303.469 106.44 306.733 106.44C309.973 106.44 312.517 107.364 314.365 109.212C316.213 111.06 317.137 113.604 317.137 116.844V130.92C317.137 131.376 317.017 131.736 316.777 132C316.537 132.24 316.201 132.36 315.769 132.36C315.361 132.36 315.025 132.24 314.761 132C314.521 131.736 314.401 131.376 314.401 130.92V122.82H299.029V130.92C299.029 131.376 298.909 131.736 298.669 132C298.429 132.24 298.093 132.36 297.661 132.36ZM314.401 120.588V116.736C314.401 114.168 313.741 112.2 312.421 110.832C311.101 109.44 309.205 108.744 306.733 108.744C304.237 108.744 302.329 109.428 301.009 110.796C299.689 112.164 299.029 114.144 299.029 116.736V120.588H314.401ZM330.416 132.36C329.984 132.36 329.648 132.24 329.408 132C329.192 131.736 329.084 131.376 329.084 130.92V109.032H320.84C320.408 109.032 320.06 108.948 319.796 108.78C319.556 108.588 319.436 108.312 319.436 107.952C319.436 107.184 319.904 106.8 320.84 106.8H340.064C341 106.8 341.468 107.184 341.468 107.952C341.468 108.288 341.348 108.552 341.108 108.744C340.868 108.936 340.52 109.032 340.064 109.032H331.82V130.92C331.82 131.376 331.688 131.736 331.424 132C331.184 132.24 330.848 132.36 330.416 132.36ZM348.351 132.36C347.943 132.36 347.619 132.24 347.379 132C347.139 131.736 347.019 131.376 347.019 130.92V107.88C347.019 107.424 347.139 107.076 347.379 106.836C347.619 106.572 347.943 106.44 348.351 106.44C348.783 106.44 349.119 106.572 349.359 106.836C349.599 107.1 349.719 107.448 349.719 107.88V130.92C349.719 131.352 349.599 131.7 349.359 131.964C349.119 132.228 348.783 132.36 348.351 132.36ZM368.471 132.36C366.047 132.36 363.863 131.832 361.919 130.776C359.975 129.696 358.439 128.172 357.311 126.204C356.207 124.236 355.655 121.968 355.655 119.4C355.655 116.808 356.207 114.54 357.311 112.596C358.439 110.628 359.975 109.116 361.919 108.06C363.863 106.98 366.047 106.44 368.471 106.44C370.895 106.44 373.079 106.98 375.023 108.06C376.967 109.116 378.491 110.628 379.595 112.596C380.723 114.54 381.287 116.808 381.287 119.4C381.287 121.968 380.723 124.236 379.595 126.204C378.491 128.172 376.967 129.696 375.023 130.776C373.079 131.832 370.895 132.36 368.471 132.36ZM368.471 130.056C370.415 130.056 372.143 129.636 373.655 128.796C375.191 127.956 376.391 126.744 377.255 125.16C378.143 123.552 378.587 121.632 378.587 119.4C378.587 117.144 378.131 115.212 377.219 113.604C376.331 111.996 375.107 110.784 373.547 109.968C372.011 109.152 370.295 108.744 368.399 108.744C366.479 108.744 364.751 109.164 363.215 110.004C361.703 110.844 360.515 112.068 359.651 113.676C358.787 115.284 358.355 117.192 358.355 119.4C358.355 121.632 358.787 123.552 359.651 125.16C360.539 126.744 361.739 127.956 363.251 128.796C364.787 129.636 366.527 130.056 368.471 130.056ZM386.324 132.36C385.916 132.36 385.592 132.24 385.352 132C385.112 131.736 384.992 131.376 384.992 130.92V116.232C384.992 114.24 385.412 112.512 386.252 111.048C387.116 109.56 388.34 108.42 389.924 107.628C391.508 106.836 393.368 106.44 395.504 106.44C397.64 106.44 399.488 106.836 401.048 107.628C402.632 108.42 403.844 109.56 404.684 111.048C405.548 112.512 405.98 114.24 405.98 116.232V130.92C405.98 131.376 405.86 131.736 405.62 132C405.404 132.24 405.08 132.36 404.648 132.36C404.24 132.36 403.904 132.24 403.64 132C403.4 131.736 403.28 131.376 403.28 130.92V116.124C403.28 113.796 402.596 111.984 401.228 110.688C399.86 109.392 397.952 108.744 395.504 108.744C393.104 108.744 391.196 109.404 389.78 110.724C388.388 112.044 387.692 113.844 387.692 116.124V130.92C387.692 131.376 387.572 131.736 387.332 132C387.092 132.24 386.756 132.36 386.324 132.36ZM431.433 132.36C429.129 132.36 427.005 131.976 425.061 131.208C423.141 130.416 421.641 129.336 420.561 127.968C420.369 127.728 420.273 127.476 420.273 127.212C420.273 126.876 420.453 126.552 420.813 126.24C421.005 126.096 421.209 126.024 421.425 126.024C421.857 126.024 422.241 126.228 422.577 126.636C423.561 127.716 424.797 128.556 426.285 129.156C427.797 129.732 429.513 130.02 431.433 130.02C433.545 130.02 435.177 129.636 436.329 128.868C437.481 128.076 438.057 126.96 438.057 125.52C438.057 124.272 437.493 123.264 436.365 122.496C435.261 121.728 433.377 121.044 430.713 120.444C427.233 119.676 424.725 118.716 423.189 117.564C421.677 116.388 420.921 114.84 420.921 112.92C420.921 110.928 421.761 109.356 423.441 108.204C425.145 107.028 427.437 106.44 430.317 106.44C432.501 106.44 434.469 106.824 436.221 107.592C437.997 108.36 439.257 109.392 440.001 110.688C440.145 110.928 440.217 111.156 440.217 111.372C440.217 111.756 440.013 112.092 439.605 112.38C439.437 112.476 439.245 112.524 439.029 112.524C438.501 112.524 438.093 112.32 437.805 111.912C437.109 110.904 436.125 110.136 434.853 109.608C433.581 109.056 432.069 108.78 430.317 108.78C425.877 108.78 423.657 110.16 423.657 112.92C423.657 113.76 423.885 114.468 424.341 115.044C424.797 115.596 425.529 116.1 426.537 116.556C427.569 116.988 428.997 117.42 430.821 117.852C434.373 118.692 436.929 119.712 438.489 120.912C440.049 122.088 440.829 123.624 440.829 125.52C440.829 127.632 439.977 129.3 438.273 130.524C436.593 131.748 434.313 132.36 431.433 132.36ZM447.009 132.36C446.601 132.36 446.277 132.24 446.037 132C445.797 131.736 445.677 131.376 445.677 130.92V111.12C445.677 109.776 446.073 108.72 446.865 107.952C447.681 107.184 448.809 106.8 450.249 106.8H456.369C463.209 106.8 466.629 109.668 466.629 115.404C466.629 118.044 465.753 120.084 464.001 121.524C462.273 122.94 459.777 123.648 456.513 123.648H448.377V130.92C448.377 131.376 448.257 131.736 448.017 132C447.777 132.24 447.441 132.36 447.009 132.36ZM456.513 121.38C458.841 121.38 460.641 120.924 461.913 120.012C463.209 119.1 463.857 117.564 463.857 115.404C463.857 113.148 463.233 111.528 461.985 110.544C460.737 109.536 458.925 109.032 456.549 109.032H450.285C449.709 109.032 449.241 109.224 448.881 109.608C448.545 109.992 448.377 110.496 448.377 111.12V121.38H456.513ZM476.126 132C474.662 132 473.522 131.616 472.706 130.848C471.89 130.08 471.482 129 471.482 127.608V111.12C471.482 109.776 471.878 108.72 472.67 107.952C473.486 107.184 474.614 106.8 476.054 106.8H487.214C488.15 106.8 488.618 107.184 488.618 107.952C488.618 108.288 488.498 108.552 488.258 108.744C488.018 108.936 487.67 109.032 487.214 109.032H476.09C475.514 109.032 475.046 109.224 474.686 109.608C474.35 109.992 474.182 110.496 474.182 111.12V117.996H484.478C485.414 117.996 485.882 118.38 485.882 119.148C485.882 119.508 485.75 119.784 485.486 119.976C485.246 120.168 484.91 120.264 484.478 120.264H474.182V127.68C474.182 128.304 474.35 128.808 474.686 129.192C475.046 129.576 475.514 129.768 476.09 129.768H488.006C488.942 129.768 489.41 130.14 489.41 130.884C489.41 131.244 489.278 131.52 489.014 131.712C488.774 131.904 488.438 132 488.006 132H476.126ZM504.238 132.36C501.742 132.36 499.546 131.832 497.65 130.776C495.778 129.696 494.326 128.184 493.294 126.24C492.262 124.272 491.746 122.004 491.746 119.436C491.746 116.844 492.262 114.564 493.294 112.596C494.326 110.628 495.778 109.116 497.65 108.06C499.546 106.98 501.73 106.44 504.202 106.44C506.266 106.44 508.162 106.788 509.89 107.484C511.642 108.18 513.01 109.152 513.994 110.4C514.186 110.616 514.282 110.88 514.282 111.192C514.282 111.576 514.114 111.888 513.778 112.128C513.562 112.272 513.322 112.344 513.058 112.344C512.602 112.344 512.218 112.164 511.906 111.804C511.138 110.82 510.094 110.064 508.774 109.536C507.454 109.008 505.93 108.744 504.202 108.744C502.21 108.744 500.482 109.176 499.018 110.04C497.554 110.904 496.426 112.14 495.634 113.748C494.866 115.356 494.482 117.252 494.482 119.436C494.482 121.596 494.866 123.48 495.634 125.088C496.426 126.672 497.554 127.896 499.018 128.76C500.506 129.624 502.246 130.056 504.238 130.056C506.086 130.056 507.694 129.792 509.062 129.264C510.454 128.712 511.546 127.956 512.338 126.996C512.698 126.612 513.082 126.42 513.49 126.42C513.778 126.42 514.018 126.504 514.21 126.672C514.546 126.96 514.714 127.272 514.714 127.608C514.714 127.896 514.606 128.172 514.39 128.436C513.406 129.636 512.002 130.596 510.178 131.316C508.378 132.012 506.398 132.36 504.238 132.36ZM521.988 132.36C521.58 132.36 521.256 132.24 521.016 132C520.776 131.736 520.656 131.376 520.656 130.92V107.88C520.656 107.424 520.776 107.076 521.016 106.836C521.256 106.572 521.58 106.44 521.988 106.44C522.42 106.44 522.756 106.572 522.996 106.836C523.236 107.1 523.356 107.448 523.356 107.88V130.92C523.356 131.352 523.236 131.7 522.996 131.964C522.756 132.228 522.42 132.36 521.988 132.36ZM531.38 132.36C530.972 132.36 530.648 132.24 530.408 132C530.168 131.736 530.048 131.376 530.048 130.92V116.844C530.048 113.58 530.96 111.036 532.784 109.212C534.632 107.364 537.188 106.44 540.452 106.44C543.692 106.44 546.236 107.364 548.084 109.212C549.932 111.06 550.856 113.604 550.856 116.844V130.92C550.856 131.376 550.736 131.736 550.496 132C550.256 132.24 549.92 132.36 549.488 132.36C549.08 132.36 548.744 132.24 548.48 132C548.24 131.736 548.12 131.376 548.12 130.92V122.82H532.748V130.92C532.748 131.376 532.628 131.736 532.388 132C532.148 132.24 531.812 132.36 531.38 132.36ZM548.12 120.588V116.736C548.12 114.168 547.46 112.2 546.14 110.832C544.82 109.44 542.924 108.744 540.452 108.744C537.956 108.744 536.048 109.428 534.728 110.796C533.408 112.164 532.748 114.144 532.748 116.736V120.588H548.12ZM561.135 132C559.671 132 558.531 131.616 557.715 130.848C556.899 130.056 556.491 128.976 556.491 127.608V107.88C556.491 107.424 556.611 107.076 556.851 106.836C557.091 106.572 557.415 106.44 557.823 106.44C558.255 106.44 558.591 106.572 558.831 106.836C559.071 107.076 559.191 107.424 559.191 107.88V127.68C559.191 128.304 559.359 128.808 559.695 129.192C560.055 129.576 560.523 129.768 561.099 129.768H573.087C574.023 129.768 574.491 130.14 574.491 130.884C574.491 131.244 574.371 131.52 574.131 131.712C573.891 131.904 573.543 132 573.087 132H561.135ZM581.437 132.36C581.029 132.36 580.705 132.24 580.465 132C580.225 131.736 580.105 131.376 580.105 130.92V107.88C580.105 107.424 580.225 107.076 580.465 106.836C580.705 106.572 581.029 106.44 581.437 106.44C581.869 106.44 582.205 106.572 582.445 106.836C582.685 107.1 582.805 107.448 582.805 107.88V130.92C582.805 131.352 582.685 131.7 582.445 131.964C582.205 132.228 581.869 132.36 581.437 132.36ZM599.937 132.36C597.633 132.36 595.509 131.976 593.565 131.208C591.645 130.416 590.145 129.336 589.065 127.968C588.873 127.728 588.777 127.476 588.777 127.212C588.777 126.876 588.957 126.552 589.317 126.24C589.509 126.096 589.713 126.024 589.929 126.024C590.361 126.024 590.745 126.228 591.081 126.636C592.065 127.716 593.301 128.556 594.789 129.156C596.301 129.732 598.017 130.02 599.937 130.02C602.049 130.02 603.681 129.636 604.833 128.868C605.985 128.076 606.561 126.96 606.561 125.52C606.561 124.272 605.997 123.264 604.869 122.496C603.765 121.728 601.881 121.044 599.217 120.444C595.737 119.676 593.229 118.716 591.693 117.564C590.181 116.388 589.425 114.84 589.425 112.92C589.425 110.928 590.265 109.356 591.945 108.204C593.649 107.028 595.941 106.44 598.821 106.44C601.005 106.44 602.973 106.824 604.725 107.592C606.501 108.36 607.761 109.392 608.505 110.688C608.649 110.928 608.721 111.156 608.721 111.372C608.721 111.756 608.517 112.092 608.109 112.38C607.941 112.476 607.749 112.524 607.533 112.524C607.005 112.524 606.597 112.32 606.309 111.912C605.613 110.904 604.629 110.136 603.357 109.608C602.085 109.056 600.573 108.78 598.821 108.78C594.381 108.78 592.161 110.16 592.161 112.92C592.161 113.76 592.389 114.468 592.845 115.044C593.301 115.596 594.033 116.1 595.041 116.556C596.073 116.988 597.501 117.42 599.325 117.852C602.877 118.692 605.433 119.712 606.993 120.912C608.553 122.088 609.333 123.624 609.333 125.52C609.333 127.632 608.481 129.3 606.777 130.524C605.097 131.748 602.817 132.36 599.937 132.36ZM622.951 132.36C622.519 132.36 622.183 132.24 621.943 132C621.727 131.736 621.619 131.376 621.619 130.92V109.032H613.375C612.943 109.032 612.595 108.948 612.331 108.78C612.091 108.588 611.971 108.312 611.971 107.952C611.971 107.184 612.439 106.8 613.375 106.8H632.599C633.535 106.8 634.003 107.184 634.003 107.952C634.003 108.288 633.883 108.552 633.643 108.744C633.403 108.936 633.055 109.032 632.599 109.032H624.355V130.92C624.355 131.376 624.223 131.736 623.959 132C623.719 132.24 623.383 132.36 622.951 132.36Z" fill="url(#paint2_linear_6_41)"/>
<rect id="underline" x="25" y="67" width="611" height="5" rx="2.5" fill="url(#paint3_linear_6_41)"/>
</g>
<defs>
<linearGradient id="paint0_linear_6_41" x1="25" y1="36" x2="636" y2="36" gradientUnits="userSpaceOnUse">
<stop stop-color="#FAFFFB"/>
<stop offset="1" stop-color="#D9B08C"/>
</linearGradient>
<linearGradient id="paint1_linear_6_41" x1="27" y1="182" x2="640" y2="182" gradientUnits="userSpaceOnUse">
<stop stop-color="#FAFFFB"/>
<stop offset="1" stop-color="#D9B08C"/>
</linearGradient>
<linearGradient id="paint2_linear_6_41" x1="25" y1="131" x2="650" y2="131" gradientUnits="userSpaceOnUse">
<stop stop-color="#FAFFFB"/>
<stop offset="1" stop-color="#D9B08C"/>
</linearGradient>
<linearGradient id="paint3_linear_6_41" x1="25" y1="69.5" x2="636" y2="69.5" gradientUnits="userSpaceOnUse">
<stop stop-color="#FAFFFB"/>
<stop offset="1" stop-color="#D9B08C"/>
</linearGradient>
</defs>
</svg>
