<svg width="114" height="122" viewBox="0 0 114 122" fill="none" xmlns="http://www.w3.org/2000/svg">
<g id="team">
<g id="Group 37">
<circle id="Ellipse 6" cx="57.3867" cy="61.3867" r="49.3867" fill="#F9FAFB"/>
<g id="Group 39">
<circle id="Ellipse 7" cx="56.294" cy="54.1524" r="15.1524" fill="#182025"/>
<path id="Rectangle 18" d="M37.6278 82.3071C38.7175 76.6606 43.6597 72.5809 49.4104 72.5809H63.349C69.0236 72.5809 73.9225 76.5559 75.0916 82.1088L78 95.9238L73.0857 97.9714L56.2952 102.067L39.5048 97.9714L35 95.9238L37.6278 82.3071Z" fill="#182025"/>
</g>
<g id="Group 40">
<ellipse id="Ellipse 7_2" cx="82.3515" cy="64.9632" rx="10.9238" ry="10.9238" fill="#182025" fill-opacity="0.78"/>
<path id="Rectangle 18_2" d="M68.3706 87.9751C69.4603 82.3286 74.4026 78.2489 80.1532 78.2489H84.7204C90.3951 78.2489 95.294 82.2239 96.463 87.7768L98 95.0775L94.4571 96.5537L82.3524 99.506L70.2476 96.5537L67 95.0775L68.3706 87.9751Z" fill="#182025" fill-opacity="0.78"/>
</g>
<g id="Group 41">
<circle id="Ellipse 7_3" cx="29.7028" cy="64.1736" r="11.1735" fill="#182025" fill-opacity="0.89"/>
<path id="Rectangle 18_3" d="M15.4449 87.4891C16.5346 81.8426 21.4768 77.7629 27.2275 77.7629H32.3481C38.0228 77.7629 42.9217 81.7379 44.0907 87.2908L45.7087 94.9762L42.0849 96.4862L29.7034 99.5061L17.3219 96.4862L14 94.9762L15.4449 87.4891Z" fill="#182025" fill-opacity="0.89"/>
</g>
<circle id="Ellipse 8" cx="57.3867" cy="61.3867" r="44.3867" stroke="#F9FAFB" stroke-width="10"/>
</g>
</g>
</svg>
