<svg width="114" height="122" viewBox="0 0 114 122" fill="none" xmlns="http://www.w3.org/2000/svg">
<g id="tech" clip-path="url(#clip0_102_57)">
<g id="Group 37">
<circle id="Ellipse 6" cx="57.3867" cy="61.3867" r="49.3867" fill="#F9FAFB"/>
<g id="gear_box2">
<path id="gear1" d="M42.1736 57.9429C42.7517 54.1294 48.2483 54.1294 48.8264 57.9429V57.9429C49.2059 60.4461 52.11 61.649 54.1484 60.1473V60.1473C57.2537 57.8596 61.1404 61.7462 58.8526 64.8516V64.8516C57.3509 66.89 58.5539 69.7941 61.0571 70.1736V70.1736C64.8706 70.7517 64.8706 76.2483 61.0571 76.8264V76.8264C58.5539 77.2059 57.3509 80.11 58.8526 82.1484V82.1484C61.1404 85.2538 57.2537 89.1404 54.1484 86.8526V86.8526C52.11 85.3509 49.2059 86.5539 48.8264 89.0571V89.0571C48.2483 92.8706 42.7517 92.8706 42.1736 89.0571V89.0571C41.7941 86.5539 38.89 85.3509 36.8516 86.8526V86.8526C33.7462 89.1404 29.8595 85.2538 32.1473 82.1484V82.1484C33.649 80.11 32.4461 77.2059 29.9429 76.8264V76.8264C26.1294 76.2483 26.1294 70.7517 29.9429 70.1736V70.1736C32.4461 69.7941 33.649 66.89 32.1473 64.8516V64.8516C29.8596 61.7462 33.7462 57.8596 36.8516 60.1473V60.1473C38.89 61.649 41.7941 60.4461 42.1736 57.9429V57.9429Z" fill="#182025"/>
<circle id="inner_circle1" cx="45.4999" cy="73.5001" r="9.23913" fill="#F9FAFB"/>
</g>
<g id="gear_box2_2">
<path id="gear1_2" d="M63.9991 37.1425C63.4878 33.5717 68.4097 32.0885 69.9564 35.3473V35.3473C70.9716 37.4864 73.8968 37.78 75.3168 35.8853V35.8853C77.4802 32.9987 82.0092 35.4303 80.7986 38.8283V38.8283C80.0039 41.0588 81.8647 43.3347 84.2086 42.9991V42.9991C87.7794 42.4877 89.2625 47.4096 86.0037 48.9563V48.9563C83.8646 49.9716 83.5711 52.8967 85.4658 54.3167V54.3167C88.3523 56.4801 85.9207 61.0092 82.5227 59.7985V59.7985C80.2923 59.0038 78.0163 60.8646 78.352 63.2085V63.2085C78.8633 66.7793 73.9414 68.2625 72.3947 65.0036V65.0036C71.3795 62.8645 68.4544 62.571 67.0343 64.4657V64.4657C64.871 67.3522 60.3419 64.9207 61.5526 61.5226V61.5226C62.3472 59.2922 60.4864 57.0163 58.1426 57.3519V57.3519C54.5717 57.8633 53.0886 52.9413 56.3474 51.3946V51.3946C58.4865 50.3794 58.78 47.4543 56.8853 46.0343V46.0343C53.9988 43.8709 56.4304 39.3418 59.8284 40.5525V40.5525C62.0589 41.3472 64.3348 39.4864 63.9991 37.1425V37.1425Z" fill="#182025"/>
<ellipse id="inner_circle1_2" cx="71.1759" cy="50.1757" rx="8.64063" ry="8.64063" transform="rotate(-9.19444 71.1759 50.1757)" fill="#F9FAFB"/>
</g>
<g id="gear_box2_3">
<path id="gear1_3" d="M63.9991 37.1425C63.4878 33.5717 68.4097 32.0885 69.9564 35.3473V35.3473C70.9716 37.4864 73.8968 37.78 75.3168 35.8853V35.8853C77.4802 32.9987 82.0092 35.4303 80.7986 38.8283V38.8283C80.0039 41.0588 81.8647 43.3347 84.2086 42.9991V42.9991C87.7794 42.4877 89.2625 47.4096 86.0037 48.9563V48.9563C83.8646 49.9716 83.5711 52.8967 85.4658 54.3167V54.3167C88.3523 56.4801 85.9207 61.0092 82.5227 59.7985V59.7985C80.2923 59.0038 78.0163 60.8646 78.352 63.2085V63.2085C78.8633 66.7793 73.9414 68.2625 72.3947 65.0036V65.0036C71.3795 62.8645 68.4544 62.571 67.0343 64.4657V64.4657C64.871 67.3522 60.3419 64.9207 61.5526 61.5226V61.5226C62.3472 59.2922 60.4864 57.0163 58.1426 57.3519V57.3519C54.5717 57.8633 53.0886 52.9413 56.3474 51.3946V51.3946C58.4865 50.3794 58.78 47.4543 56.8853 46.0343V46.0343C53.9988 43.8709 56.4304 39.3418 59.8284 40.5525V40.5525C62.0589 41.3472 64.3348 39.4864 63.9991 37.1425V37.1425Z" fill="#182025"/>
<ellipse id="inner_circle1_3" cx="71.1759" cy="50.1757" rx="8.64063" ry="8.64063" transform="rotate(-9.19444 71.1759 50.1757)" fill="#F9FAFB"/>
</g>
<circle id="Ellipse 8" cx="57.3867" cy="61.3867" r="44.3867" stroke="#F9FAFB" stroke-width="10"/>
</g>
</g>
<defs>
<clipPath id="clip0_102_57">
<rect width="114" height="122" fill="white"/>
</clipPath>
</defs>
</svg>
