<svg width="156" height="122" viewBox="0 0 156 122" fill="none" xmlns="http://www.w3.org/2000/svg">
<g id="WOP">
<g id="Group 31">
<g id="Vector 1">
<path d="M30.9561 52.2627V114.043H105.505V52.2627H66.6099H30.9561Z" fill="#F9FAFB"/>
<path d="M105.505 114.043L128.194 92.4308V29.1108L105.505 52.2627V114.043Z" fill="#F9FAFB"/>
<path d="M105.505 52.2627L128.194 29.1108L134 8L113.692 29.1108L110 32.6154L105.505 52.2627Z" fill="#F9FAFB"/>
<path d="M58.5068 29.1108L44.7315 40.6867L30.9561 52.2627H66.6099H105.505L110 32.6154L113.692 29.1108H85.3325H58.5068Z" fill="#F9FAFB" fill-opacity="0.14"/>
<path d="M30.9561 52.2627L44.7315 40.6867L58.5068 29.1108L50.1478 8L22 29.1108L30.9561 52.2627Z" fill="#F9FAFB" fill-opacity="0.38"/>
<path d="M30.9561 52.2627V114.043H105.505M30.9561 52.2627H66.6099H105.505M30.9561 52.2627L22 29.1108L50.1478 8L58.5068 29.1108M30.9561 52.2627L44.7315 40.6867L58.5068 29.1108M105.505 114.043L128.194 92.4308V29.1108M105.505 114.043V52.2627M128.194 29.1108L105.505 52.2627M128.194 29.1108L134 8L113.692 29.1108M58.5068 29.1108H85.3325H113.692M105.505 52.2627L110 32.6154L113.692 29.1108" stroke="#F9FAFB"/>
</g>
<g id="Vector 5">
<path d="M101.933 41L108 34.1294V14L101.933 21.36V41Z" fill="#182025"/>
<path d="M82 21.36V41H101.933V21.36H91.5333H82Z" fill="#182025"/>
<path d="M89.3667 14L82 21.36H91.5333H101.933L108 14H89.3667Z" fill="#182025"/>
<path d="M82 21.36V41H101.933M82 21.36L89.3667 14H108M82 21.36H91.5333H101.933M101.933 41L108 34.1294V14M101.933 41V21.36M108 14L101.933 21.36" stroke="#F9FAFB"/>
</g>
<g id="Vector 2">
<path d="M70.2333 51L77 44.1294V24L70.2333 31.36V51Z" fill="#182025"/>
<path d="M48 31.36V51H70.2333V31.36H58.6333H48Z" fill="#182025"/>
<path d="M56.2167 24L48 31.36H58.6333H70.2333L77 24H56.2167Z" fill="#182025"/>
<path d="M48 31.36V51H70.2333M48 31.36L56.2167 24H77M48 31.36H58.6333H70.2333M70.2333 51L77 44.1294V24M70.2333 51V31.36M77 24L70.2333 31.36" stroke="#F9FAFB"/>
</g>
</g>
</g>
</svg>
